G04 #@! TF.GenerationSoftware,KiCad,Pcbnew,5.1.6-c6e7f7d~86~ubuntu18.04.1*
G04 #@! TF.CreationDate,2020-06-04T18:49:23-07:00*
G04 #@! TF.ProjectId,odrive_aux_interface,6f647269-7665-45f6-9175-785f696e7465,rev?*
G04 #@! TF.SameCoordinates,Original*
G04 #@! TF.FileFunction,Legend,Top*
G04 #@! TF.FilePolarity,Positive*
%FSLAX46Y46*%
G04 Gerber Fmt 4.6, Leading zero omitted, Abs format (unit mm)*
G04 Created by KiCad (PCBNEW 5.1.6-c6e7f7d~86~ubuntu18.04.1) date 2020-06-04 18:49:23*
%MOMM*%
%LPD*%
G01*
G04 APERTURE LIST*
%ADD10C,0.250000*%
%ADD11C,0.120000*%
%ADD12C,0.150000*%
%ADD13C,0.100000*%
%ADD14C,0.254000*%
G04 APERTURE END LIST*
D10*
X147595238Y-171928571D02*
X147928571Y-171928571D01*
X148071428Y-172452380D02*
X147595238Y-172452380D01*
X147595238Y-171452380D01*
X148071428Y-171452380D01*
X148452380Y-172404761D02*
X148595238Y-172452380D01*
X148833333Y-172452380D01*
X148928571Y-172404761D01*
X148976190Y-172357142D01*
X149023809Y-172261904D01*
X149023809Y-172166666D01*
X148976190Y-172071428D01*
X148928571Y-172023809D01*
X148833333Y-171976190D01*
X148642857Y-171928571D01*
X148547619Y-171880952D01*
X148500000Y-171833333D01*
X148452380Y-171738095D01*
X148452380Y-171642857D01*
X148500000Y-171547619D01*
X148547619Y-171500000D01*
X148642857Y-171452380D01*
X148880952Y-171452380D01*
X149023809Y-171500000D01*
X149357142Y-171452380D02*
X149595238Y-172452380D01*
X149785714Y-171738095D01*
X149976190Y-172452380D01*
X150214285Y-171452380D01*
X150595238Y-172452380D02*
X150595238Y-171452380D01*
X150928571Y-171452380D02*
X151500000Y-171452380D01*
X151214285Y-172452380D02*
X151214285Y-171452380D01*
X152404761Y-172357142D02*
X152357142Y-172404761D01*
X152214285Y-172452380D01*
X152119047Y-172452380D01*
X151976190Y-172404761D01*
X151880952Y-172309523D01*
X151833333Y-172214285D01*
X151785714Y-172023809D01*
X151785714Y-171880952D01*
X151833333Y-171690476D01*
X151880952Y-171595238D01*
X151976190Y-171500000D01*
X152119047Y-171452380D01*
X152214285Y-171452380D01*
X152357142Y-171500000D01*
X152404761Y-171547619D01*
X152833333Y-172452380D02*
X152833333Y-171452380D01*
X152833333Y-171928571D02*
X153404761Y-171928571D01*
X153404761Y-172452380D02*
X153404761Y-171452380D01*
X121178571Y-149642857D02*
X121178571Y-149309523D01*
X121702380Y-149166666D02*
X121702380Y-149642857D01*
X120702380Y-149642857D01*
X120702380Y-149166666D01*
X121416666Y-148785714D02*
X121416666Y-148309523D01*
X121702380Y-148880952D02*
X120702380Y-148547619D01*
X121702380Y-148214285D01*
X120702380Y-147880952D02*
X121511904Y-147880952D01*
X121607142Y-147833333D01*
X121654761Y-147785714D01*
X121702380Y-147690476D01*
X121702380Y-147500000D01*
X121654761Y-147404761D01*
X121607142Y-147357142D01*
X121511904Y-147309523D01*
X120702380Y-147309523D01*
X120702380Y-146928571D02*
X121702380Y-146261904D01*
X120702380Y-146261904D02*
X121702380Y-146928571D01*
X143738095Y-147750000D02*
X143642857Y-147702380D01*
X143500000Y-147702380D01*
X143357142Y-147750000D01*
X143261904Y-147845238D01*
X143214285Y-147940476D01*
X143166666Y-148130952D01*
X143166666Y-148273809D01*
X143214285Y-148464285D01*
X143261904Y-148559523D01*
X143357142Y-148654761D01*
X143500000Y-148702380D01*
X143595238Y-148702380D01*
X143738095Y-148654761D01*
X143785714Y-148607142D01*
X143785714Y-148273809D01*
X143595238Y-148273809D01*
X144214285Y-148702380D02*
X144214285Y-147702380D01*
X144785714Y-148702380D01*
X144785714Y-147702380D01*
X145261904Y-148702380D02*
X145261904Y-147702380D01*
X145500000Y-147702380D01*
X145642857Y-147750000D01*
X145738095Y-147845238D01*
X145785714Y-147940476D01*
X145833333Y-148130952D01*
X145833333Y-148273809D01*
X145785714Y-148464285D01*
X145738095Y-148559523D01*
X145642857Y-148654761D01*
X145500000Y-148702380D01*
X145261904Y-148702380D01*
X150000000Y-154607142D02*
X149952380Y-154702380D01*
X149952380Y-154845238D01*
X150000000Y-154988095D01*
X150095238Y-155083333D01*
X150190476Y-155130952D01*
X150380952Y-155178571D01*
X150523809Y-155178571D01*
X150714285Y-155130952D01*
X150809523Y-155083333D01*
X150904761Y-154988095D01*
X150952380Y-154845238D01*
X150952380Y-154750000D01*
X150904761Y-154607142D01*
X150857142Y-154559523D01*
X150523809Y-154559523D01*
X150523809Y-154750000D01*
X150952380Y-154130952D02*
X149952380Y-154130952D01*
X149952380Y-153750000D01*
X150000000Y-153654761D01*
X150047619Y-153607142D01*
X150142857Y-153559523D01*
X150285714Y-153559523D01*
X150380952Y-153607142D01*
X150428571Y-153654761D01*
X150476190Y-153750000D01*
X150476190Y-154130952D01*
X150952380Y-153130952D02*
X149952380Y-153130952D01*
X149952380Y-152464285D02*
X149952380Y-152273809D01*
X150000000Y-152178571D01*
X150095238Y-152083333D01*
X150285714Y-152035714D01*
X150619047Y-152035714D01*
X150809523Y-152083333D01*
X150904761Y-152178571D01*
X150952380Y-152273809D01*
X150952380Y-152464285D01*
X150904761Y-152559523D01*
X150809523Y-152654761D01*
X150619047Y-152702380D01*
X150285714Y-152702380D01*
X150095238Y-152654761D01*
X150000000Y-152559523D01*
X149952380Y-152464285D01*
X151047619Y-151845238D02*
X151047619Y-151083333D01*
X149952380Y-150940476D02*
X149952380Y-150273809D01*
X150952380Y-150702380D01*
X148595238Y-97428571D02*
X148738095Y-97476190D01*
X148785714Y-97523809D01*
X148833333Y-97619047D01*
X148833333Y-97761904D01*
X148785714Y-97857142D01*
X148738095Y-97904761D01*
X148642857Y-97952380D01*
X148261904Y-97952380D01*
X148261904Y-96952380D01*
X148595238Y-96952380D01*
X148690476Y-97000000D01*
X148738095Y-97047619D01*
X148785714Y-97142857D01*
X148785714Y-97238095D01*
X148738095Y-97333333D01*
X148690476Y-97380952D01*
X148595238Y-97428571D01*
X148261904Y-97428571D01*
X149166666Y-97285714D02*
X149404761Y-97952380D01*
X149642857Y-97285714D02*
X149404761Y-97952380D01*
X149309523Y-98190476D01*
X149261904Y-98238095D01*
X149166666Y-98285714D01*
X150642857Y-96952380D02*
X151214285Y-96952380D01*
X150928571Y-97952380D02*
X150928571Y-96952380D01*
X152023809Y-97952380D02*
X151547619Y-97952380D01*
X151547619Y-96952380D01*
X152309523Y-97666666D02*
X152785714Y-97666666D01*
X152214285Y-97952380D02*
X152547619Y-96952380D01*
X152880952Y-97952380D01*
X135928571Y-89702380D02*
X136119047Y-89702380D01*
X136214285Y-89750000D01*
X136309523Y-89845238D01*
X136357142Y-90035714D01*
X136357142Y-90369047D01*
X136309523Y-90559523D01*
X136214285Y-90654761D01*
X136119047Y-90702380D01*
X135928571Y-90702380D01*
X135833333Y-90654761D01*
X135738095Y-90559523D01*
X135690476Y-90369047D01*
X135690476Y-90035714D01*
X135738095Y-89845238D01*
X135833333Y-89750000D01*
X135928571Y-89702380D01*
X137214285Y-90702380D02*
X137214285Y-89702380D01*
X137214285Y-90654761D02*
X137119047Y-90702380D01*
X136928571Y-90702380D01*
X136833333Y-90654761D01*
X136785714Y-90607142D01*
X136738095Y-90511904D01*
X136738095Y-90226190D01*
X136785714Y-90130952D01*
X136833333Y-90083333D01*
X136928571Y-90035714D01*
X137119047Y-90035714D01*
X137214285Y-90083333D01*
X137690476Y-90702380D02*
X137690476Y-90035714D01*
X137690476Y-90226190D02*
X137738095Y-90130952D01*
X137785714Y-90083333D01*
X137880952Y-90035714D01*
X137976190Y-90035714D01*
X138309523Y-90702380D02*
X138309523Y-90035714D01*
X138309523Y-89702380D02*
X138261904Y-89750000D01*
X138309523Y-89797619D01*
X138357142Y-89750000D01*
X138309523Y-89702380D01*
X138309523Y-89797619D01*
X138690476Y-90035714D02*
X138928571Y-90702380D01*
X139166666Y-90035714D01*
X139928571Y-90654761D02*
X139833333Y-90702380D01*
X139642857Y-90702380D01*
X139547619Y-90654761D01*
X139500000Y-90559523D01*
X139500000Y-90178571D01*
X139547619Y-90083333D01*
X139642857Y-90035714D01*
X139833333Y-90035714D01*
X139928571Y-90083333D01*
X139976190Y-90178571D01*
X139976190Y-90273809D01*
X139500000Y-90369047D01*
X141119047Y-90416666D02*
X141595238Y-90416666D01*
X141023809Y-90702380D02*
X141357142Y-89702380D01*
X141690476Y-90702380D01*
X142452380Y-90035714D02*
X142452380Y-90702380D01*
X142023809Y-90035714D02*
X142023809Y-90559523D01*
X142071428Y-90654761D01*
X142166666Y-90702380D01*
X142309523Y-90702380D01*
X142404761Y-90654761D01*
X142452380Y-90607142D01*
X142833333Y-90702380D02*
X143357142Y-90035714D01*
X142833333Y-90035714D02*
X143357142Y-90702380D01*
X144357142Y-89702380D02*
X144690476Y-90702380D01*
X145023809Y-89702380D01*
X145880952Y-90702380D02*
X145309523Y-90702380D01*
X145595238Y-90702380D02*
X145595238Y-89702380D01*
X145500000Y-89845238D01*
X145404761Y-89940476D01*
X145309523Y-89988095D01*
X146309523Y-90607142D02*
X146357142Y-90654761D01*
X146309523Y-90702380D01*
X146261904Y-90654761D01*
X146309523Y-90607142D01*
X146309523Y-90702380D01*
X146738095Y-89797619D02*
X146785714Y-89750000D01*
X146880952Y-89702380D01*
X147119047Y-89702380D01*
X147214285Y-89750000D01*
X147261904Y-89797619D01*
X147309523Y-89892857D01*
X147309523Y-89988095D01*
X147261904Y-90130952D01*
X146690476Y-90702380D01*
X147309523Y-90702380D01*
X137666666Y-92357142D02*
X137619047Y-92404761D01*
X137476190Y-92452380D01*
X137380952Y-92452380D01*
X137238095Y-92404761D01*
X137142857Y-92309523D01*
X137095238Y-92214285D01*
X137047619Y-92023809D01*
X137047619Y-91880952D01*
X137095238Y-91690476D01*
X137142857Y-91595238D01*
X137238095Y-91500000D01*
X137380952Y-91452380D01*
X137476190Y-91452380D01*
X137619047Y-91500000D01*
X137666666Y-91547619D01*
X138666666Y-92357142D02*
X138619047Y-92404761D01*
X138476190Y-92452380D01*
X138380952Y-92452380D01*
X138238095Y-92404761D01*
X138142857Y-92309523D01*
X138095238Y-92214285D01*
X138047619Y-92023809D01*
X138047619Y-91880952D01*
X138095238Y-91690476D01*
X138142857Y-91595238D01*
X138238095Y-91500000D01*
X138380952Y-91452380D01*
X138476190Y-91452380D01*
X138619047Y-91500000D01*
X138666666Y-91547619D01*
X139285714Y-91452380D02*
X139380952Y-91452380D01*
X139476190Y-91500000D01*
X139523809Y-91547619D01*
X139571428Y-91642857D01*
X139619047Y-91833333D01*
X139619047Y-92071428D01*
X139571428Y-92261904D01*
X139523809Y-92357142D01*
X139476190Y-92404761D01*
X139380952Y-92452380D01*
X139285714Y-92452380D01*
X139190476Y-92404761D01*
X139142857Y-92357142D01*
X139095238Y-92261904D01*
X139047619Y-92071428D01*
X139047619Y-91833333D01*
X139095238Y-91642857D01*
X139142857Y-91547619D01*
X139190476Y-91500000D01*
X139285714Y-91452380D01*
X141285714Y-92452380D02*
X140809523Y-92452380D01*
X140809523Y-91452380D01*
X141619047Y-92452380D02*
X141619047Y-91785714D01*
X141619047Y-91452380D02*
X141571428Y-91500000D01*
X141619047Y-91547619D01*
X141666666Y-91500000D01*
X141619047Y-91452380D01*
X141619047Y-91547619D01*
X142523809Y-92404761D02*
X142428571Y-92452380D01*
X142238095Y-92452380D01*
X142142857Y-92404761D01*
X142095238Y-92357142D01*
X142047619Y-92261904D01*
X142047619Y-91976190D01*
X142095238Y-91880952D01*
X142142857Y-91833333D01*
X142238095Y-91785714D01*
X142428571Y-91785714D01*
X142523809Y-91833333D01*
X143333333Y-92404761D02*
X143238095Y-92452380D01*
X143047619Y-92452380D01*
X142952380Y-92404761D01*
X142904761Y-92309523D01*
X142904761Y-91928571D01*
X142952380Y-91833333D01*
X143047619Y-91785714D01*
X143238095Y-91785714D01*
X143333333Y-91833333D01*
X143380952Y-91928571D01*
X143380952Y-92023809D01*
X142904761Y-92119047D01*
X143809523Y-91785714D02*
X143809523Y-92452380D01*
X143809523Y-91880952D02*
X143857142Y-91833333D01*
X143952380Y-91785714D01*
X144095238Y-91785714D01*
X144190476Y-91833333D01*
X144238095Y-91928571D01*
X144238095Y-92452380D01*
X144666666Y-92404761D02*
X144761904Y-92452380D01*
X144952380Y-92452380D01*
X145047619Y-92404761D01*
X145095238Y-92309523D01*
X145095238Y-92261904D01*
X145047619Y-92166666D01*
X144952380Y-92119047D01*
X144809523Y-92119047D01*
X144714285Y-92071428D01*
X144666666Y-91976190D01*
X144666666Y-91928571D01*
X144714285Y-91833333D01*
X144809523Y-91785714D01*
X144952380Y-91785714D01*
X145047619Y-91833333D01*
X145904761Y-92404761D02*
X145809523Y-92452380D01*
X145619047Y-92452380D01*
X145523809Y-92404761D01*
X145476190Y-92309523D01*
X145476190Y-91928571D01*
X145523809Y-91833333D01*
X145619047Y-91785714D01*
X145809523Y-91785714D01*
X145904761Y-91833333D01*
X145952380Y-91928571D01*
X145952380Y-92023809D01*
X145476190Y-92119047D01*
X136880952Y-94202380D02*
X136404761Y-94202380D01*
X136404761Y-93202380D01*
X137357142Y-94202380D02*
X137261904Y-94154761D01*
X137214285Y-94107142D01*
X137166666Y-94011904D01*
X137166666Y-93726190D01*
X137214285Y-93630952D01*
X137261904Y-93583333D01*
X137357142Y-93535714D01*
X137500000Y-93535714D01*
X137595238Y-93583333D01*
X137642857Y-93630952D01*
X137690476Y-93726190D01*
X137690476Y-94011904D01*
X137642857Y-94107142D01*
X137595238Y-94154761D01*
X137500000Y-94202380D01*
X137357142Y-94202380D01*
X138023809Y-93535714D02*
X138261904Y-94202380D01*
X138500000Y-93535714D01*
X139261904Y-94154761D02*
X139166666Y-94202380D01*
X138976190Y-94202380D01*
X138880952Y-94154761D01*
X138833333Y-94059523D01*
X138833333Y-93678571D01*
X138880952Y-93583333D01*
X138976190Y-93535714D01*
X139166666Y-93535714D01*
X139261904Y-93583333D01*
X139309523Y-93678571D01*
X139309523Y-93773809D01*
X138833333Y-93869047D01*
X140500000Y-93678571D02*
X140833333Y-93678571D01*
X140976190Y-94202380D02*
X140500000Y-94202380D01*
X140500000Y-93202380D01*
X140976190Y-93202380D01*
X141309523Y-93535714D02*
X141547619Y-94202380D01*
X141785714Y-93535714D01*
X142547619Y-94154761D02*
X142452380Y-94202380D01*
X142261904Y-94202380D01*
X142166666Y-94154761D01*
X142119047Y-94059523D01*
X142119047Y-93678571D01*
X142166666Y-93583333D01*
X142261904Y-93535714D01*
X142452380Y-93535714D01*
X142547619Y-93583333D01*
X142595238Y-93678571D01*
X142595238Y-93773809D01*
X142119047Y-93869047D01*
X143023809Y-94202380D02*
X143023809Y-93535714D01*
X143023809Y-93726190D02*
X143071428Y-93630952D01*
X143119047Y-93583333D01*
X143214285Y-93535714D01*
X143309523Y-93535714D01*
X143547619Y-93535714D02*
X143785714Y-94202380D01*
X144023809Y-93535714D02*
X143785714Y-94202380D01*
X143690476Y-94440476D01*
X143642857Y-94488095D01*
X143547619Y-94535714D01*
X144547619Y-94202380D02*
X144452380Y-94154761D01*
X144404761Y-94107142D01*
X144357142Y-94011904D01*
X144357142Y-93726190D01*
X144404761Y-93630952D01*
X144452380Y-93583333D01*
X144547619Y-93535714D01*
X144690476Y-93535714D01*
X144785714Y-93583333D01*
X144833333Y-93630952D01*
X144880952Y-93726190D01*
X144880952Y-94011904D01*
X144833333Y-94107142D01*
X144785714Y-94154761D01*
X144690476Y-94202380D01*
X144547619Y-94202380D01*
X145309523Y-93535714D02*
X145309523Y-94202380D01*
X145309523Y-93630952D02*
X145357142Y-93583333D01*
X145452380Y-93535714D01*
X145595238Y-93535714D01*
X145690476Y-93583333D01*
X145738095Y-93678571D01*
X145738095Y-94202380D01*
X146595238Y-94154761D02*
X146500000Y-94202380D01*
X146309523Y-94202380D01*
X146214285Y-94154761D01*
X146166666Y-94059523D01*
X146166666Y-93678571D01*
X146214285Y-93583333D01*
X146309523Y-93535714D01*
X146500000Y-93535714D01*
X146595238Y-93583333D01*
X146642857Y-93678571D01*
X146642857Y-93773809D01*
X146166666Y-93869047D01*
X121357142Y-121523809D02*
X121404761Y-121571428D01*
X121452380Y-121714285D01*
X121452380Y-121809523D01*
X121404761Y-121952380D01*
X121309523Y-122047619D01*
X121214285Y-122095238D01*
X121023809Y-122142857D01*
X120880952Y-122142857D01*
X120690476Y-122095238D01*
X120595238Y-122047619D01*
X120500000Y-121952380D01*
X120452380Y-121809523D01*
X120452380Y-121714285D01*
X120500000Y-121571428D01*
X120547619Y-121523809D01*
X121166666Y-121142857D02*
X121166666Y-120666666D01*
X121452380Y-121238095D02*
X120452380Y-120904761D01*
X121452380Y-120571428D01*
X121452380Y-120238095D02*
X120452380Y-120238095D01*
X121452380Y-119666666D01*
X120452380Y-119666666D01*
X121547619Y-119428571D02*
X121547619Y-118666666D01*
X120928571Y-118095238D02*
X120976190Y-117952380D01*
X121023809Y-117904761D01*
X121119047Y-117857142D01*
X121261904Y-117857142D01*
X121357142Y-117904761D01*
X121404761Y-117952380D01*
X121452380Y-118047619D01*
X121452380Y-118428571D01*
X120452380Y-118428571D01*
X120452380Y-118095238D01*
X120500000Y-118000000D01*
X120547619Y-117952380D01*
X120642857Y-117904761D01*
X120738095Y-117904761D01*
X120833333Y-117952380D01*
X120880952Y-118000000D01*
X120928571Y-118095238D01*
X120928571Y-118428571D01*
X120452380Y-117428571D02*
X121261904Y-117428571D01*
X121357142Y-117380952D01*
X121404761Y-117333333D01*
X121452380Y-117238095D01*
X121452380Y-117047619D01*
X121404761Y-116952380D01*
X121357142Y-116904761D01*
X121261904Y-116857142D01*
X120452380Y-116857142D01*
X121404761Y-116428571D02*
X121452380Y-116285714D01*
X121452380Y-116047619D01*
X121404761Y-115952380D01*
X121357142Y-115904761D01*
X121261904Y-115857142D01*
X121166666Y-115857142D01*
X121071428Y-115904761D01*
X121023809Y-115952380D01*
X120976190Y-116047619D01*
X120928571Y-116238095D01*
X120880952Y-116333333D01*
X120833333Y-116380952D01*
X120738095Y-116428571D01*
X120642857Y-116428571D01*
X120547619Y-116380952D01*
X120500000Y-116333333D01*
X120452380Y-116238095D01*
X120452380Y-116000000D01*
X120500000Y-115857142D01*
X121452380Y-106964285D02*
X120976190Y-107297619D01*
X121452380Y-107535714D02*
X120452380Y-107535714D01*
X120452380Y-107154761D01*
X120500000Y-107059523D01*
X120547619Y-107011904D01*
X120642857Y-106964285D01*
X120785714Y-106964285D01*
X120880952Y-107011904D01*
X120928571Y-107059523D01*
X120976190Y-107154761D01*
X120976190Y-107535714D01*
X121404761Y-106583333D02*
X121452380Y-106440476D01*
X121452380Y-106202380D01*
X121404761Y-106107142D01*
X121357142Y-106059523D01*
X121261904Y-106011904D01*
X121166666Y-106011904D01*
X121071428Y-106059523D01*
X121023809Y-106107142D01*
X120976190Y-106202380D01*
X120928571Y-106392857D01*
X120880952Y-106488095D01*
X120833333Y-106535714D01*
X120738095Y-106583333D01*
X120642857Y-106583333D01*
X120547619Y-106535714D01*
X120500000Y-106488095D01*
X120452380Y-106392857D01*
X120452380Y-106154761D01*
X120500000Y-106011904D01*
X121071428Y-105583333D02*
X121071428Y-104821428D01*
X120785714Y-103916666D02*
X121452380Y-103916666D01*
X120404761Y-104154761D02*
X121119047Y-104392857D01*
X121119047Y-103773809D01*
X120880952Y-103250000D02*
X120833333Y-103345238D01*
X120785714Y-103392857D01*
X120690476Y-103440476D01*
X120642857Y-103440476D01*
X120547619Y-103392857D01*
X120500000Y-103345238D01*
X120452380Y-103250000D01*
X120452380Y-103059523D01*
X120500000Y-102964285D01*
X120547619Y-102916666D01*
X120642857Y-102869047D01*
X120690476Y-102869047D01*
X120785714Y-102916666D01*
X120833333Y-102964285D01*
X120880952Y-103059523D01*
X120880952Y-103250000D01*
X120928571Y-103345238D01*
X120976190Y-103392857D01*
X121071428Y-103440476D01*
X121261904Y-103440476D01*
X121357142Y-103392857D01*
X121404761Y-103345238D01*
X121452380Y-103250000D01*
X121452380Y-103059523D01*
X121404761Y-102964285D01*
X121357142Y-102916666D01*
X121261904Y-102869047D01*
X121071428Y-102869047D01*
X120976190Y-102916666D01*
X120928571Y-102964285D01*
X120880952Y-103059523D01*
X120452380Y-101964285D02*
X120452380Y-102440476D01*
X120928571Y-102488095D01*
X120880952Y-102440476D01*
X120833333Y-102345238D01*
X120833333Y-102107142D01*
X120880952Y-102011904D01*
X120928571Y-101964285D01*
X121023809Y-101916666D01*
X121261904Y-101916666D01*
X121357142Y-101964285D01*
X121404761Y-102011904D01*
X121452380Y-102107142D01*
X121452380Y-102345238D01*
X121404761Y-102440476D01*
X121357142Y-102488095D01*
X121054761Y-135865952D02*
X121102380Y-135723095D01*
X121102380Y-135485000D01*
X121054761Y-135389761D01*
X121007142Y-135342142D01*
X120911904Y-135294523D01*
X120816666Y-135294523D01*
X120721428Y-135342142D01*
X120673809Y-135389761D01*
X120626190Y-135485000D01*
X120578571Y-135675476D01*
X120530952Y-135770714D01*
X120483333Y-135818333D01*
X120388095Y-135865952D01*
X120292857Y-135865952D01*
X120197619Y-135818333D01*
X120150000Y-135770714D01*
X120102380Y-135675476D01*
X120102380Y-135437380D01*
X120150000Y-135294523D01*
X121102380Y-134865952D02*
X120102380Y-134865952D01*
X120102380Y-134485000D01*
X120150000Y-134389761D01*
X120197619Y-134342142D01*
X120292857Y-134294523D01*
X120435714Y-134294523D01*
X120530952Y-134342142D01*
X120578571Y-134389761D01*
X120626190Y-134485000D01*
X120626190Y-134865952D01*
X121102380Y-133865952D02*
X120102380Y-133865952D01*
X121197619Y-133627857D02*
X121197619Y-132865952D01*
X121102380Y-132104047D02*
X121102380Y-132675476D01*
X121102380Y-132389761D02*
X120102380Y-132389761D01*
X120245238Y-132485000D01*
X120340476Y-132580238D01*
X120388095Y-132675476D01*
X150250000Y-160857142D02*
X150202380Y-160952380D01*
X150202380Y-161095238D01*
X150250000Y-161238095D01*
X150345238Y-161333333D01*
X150440476Y-161380952D01*
X150630952Y-161428571D01*
X150773809Y-161428571D01*
X150964285Y-161380952D01*
X151059523Y-161333333D01*
X151154761Y-161238095D01*
X151202380Y-161095238D01*
X151202380Y-161000000D01*
X151154761Y-160857142D01*
X151107142Y-160809523D01*
X150773809Y-160809523D01*
X150773809Y-161000000D01*
X151202380Y-160380952D02*
X150202380Y-160380952D01*
X150202380Y-160000000D01*
X150250000Y-159904761D01*
X150297619Y-159857142D01*
X150392857Y-159809523D01*
X150535714Y-159809523D01*
X150630952Y-159857142D01*
X150678571Y-159904761D01*
X150726190Y-160000000D01*
X150726190Y-160380952D01*
X151202380Y-159380952D02*
X150202380Y-159380952D01*
X150202380Y-158714285D02*
X150202380Y-158523809D01*
X150250000Y-158428571D01*
X150345238Y-158333333D01*
X150535714Y-158285714D01*
X150869047Y-158285714D01*
X151059523Y-158333333D01*
X151154761Y-158428571D01*
X151202380Y-158523809D01*
X151202380Y-158714285D01*
X151154761Y-158809523D01*
X151059523Y-158904761D01*
X150869047Y-158952380D01*
X150535714Y-158952380D01*
X150345238Y-158904761D01*
X150250000Y-158809523D01*
X150202380Y-158714285D01*
X151297619Y-158095238D02*
X151297619Y-157333333D01*
X150630952Y-156952380D02*
X150583333Y-157047619D01*
X150535714Y-157095238D01*
X150440476Y-157142857D01*
X150392857Y-157142857D01*
X150297619Y-157095238D01*
X150250000Y-157047619D01*
X150202380Y-156952380D01*
X150202380Y-156761904D01*
X150250000Y-156666666D01*
X150297619Y-156619047D01*
X150392857Y-156571428D01*
X150440476Y-156571428D01*
X150535714Y-156619047D01*
X150583333Y-156666666D01*
X150630952Y-156761904D01*
X150630952Y-156952380D01*
X150678571Y-157047619D01*
X150726190Y-157095238D01*
X150821428Y-157142857D01*
X151011904Y-157142857D01*
X151107142Y-157095238D01*
X151154761Y-157047619D01*
X151202380Y-156952380D01*
X151202380Y-156761904D01*
X151154761Y-156666666D01*
X151107142Y-156619047D01*
X151011904Y-156571428D01*
X150821428Y-156571428D01*
X150726190Y-156619047D01*
X150678571Y-156666666D01*
X150630952Y-156761904D01*
X149995000Y-146857142D02*
X149947380Y-146952380D01*
X149947380Y-147095238D01*
X149995000Y-147238095D01*
X150090238Y-147333333D01*
X150185476Y-147380952D01*
X150375952Y-147428571D01*
X150518809Y-147428571D01*
X150709285Y-147380952D01*
X150804523Y-147333333D01*
X150899761Y-147238095D01*
X150947380Y-147095238D01*
X150947380Y-147000000D01*
X150899761Y-146857142D01*
X150852142Y-146809523D01*
X150518809Y-146809523D01*
X150518809Y-147000000D01*
X150947380Y-146380952D02*
X149947380Y-146380952D01*
X149947380Y-146000000D01*
X149995000Y-145904761D01*
X150042619Y-145857142D01*
X150137857Y-145809523D01*
X150280714Y-145809523D01*
X150375952Y-145857142D01*
X150423571Y-145904761D01*
X150471190Y-146000000D01*
X150471190Y-146380952D01*
X150947380Y-145380952D02*
X149947380Y-145380952D01*
X149947380Y-144714285D02*
X149947380Y-144523809D01*
X149995000Y-144428571D01*
X150090238Y-144333333D01*
X150280714Y-144285714D01*
X150614047Y-144285714D01*
X150804523Y-144333333D01*
X150899761Y-144428571D01*
X150947380Y-144523809D01*
X150947380Y-144714285D01*
X150899761Y-144809523D01*
X150804523Y-144904761D01*
X150614047Y-144952380D01*
X150280714Y-144952380D01*
X150090238Y-144904761D01*
X149995000Y-144809523D01*
X149947380Y-144714285D01*
X151042619Y-144095238D02*
X151042619Y-143333333D01*
X149947380Y-142666666D02*
X149947380Y-142857142D01*
X149995000Y-142952380D01*
X150042619Y-143000000D01*
X150185476Y-143095238D01*
X150375952Y-143142857D01*
X150756904Y-143142857D01*
X150852142Y-143095238D01*
X150899761Y-143047619D01*
X150947380Y-142952380D01*
X150947380Y-142761904D01*
X150899761Y-142666666D01*
X150852142Y-142619047D01*
X150756904Y-142571428D01*
X150518809Y-142571428D01*
X150423571Y-142619047D01*
X150375952Y-142666666D01*
X150328333Y-142761904D01*
X150328333Y-142952380D01*
X150375952Y-143047619D01*
X150423571Y-143095238D01*
X150518809Y-143142857D01*
X149995000Y-139652142D02*
X149947380Y-139747380D01*
X149947380Y-139890238D01*
X149995000Y-140033095D01*
X150090238Y-140128333D01*
X150185476Y-140175952D01*
X150375952Y-140223571D01*
X150518809Y-140223571D01*
X150709285Y-140175952D01*
X150804523Y-140128333D01*
X150899761Y-140033095D01*
X150947380Y-139890238D01*
X150947380Y-139795000D01*
X150899761Y-139652142D01*
X150852142Y-139604523D01*
X150518809Y-139604523D01*
X150518809Y-139795000D01*
X150947380Y-139175952D02*
X149947380Y-139175952D01*
X149947380Y-138795000D01*
X149995000Y-138699761D01*
X150042619Y-138652142D01*
X150137857Y-138604523D01*
X150280714Y-138604523D01*
X150375952Y-138652142D01*
X150423571Y-138699761D01*
X150471190Y-138795000D01*
X150471190Y-139175952D01*
X150947380Y-138175952D02*
X149947380Y-138175952D01*
X149947380Y-137509285D02*
X149947380Y-137318809D01*
X149995000Y-137223571D01*
X150090238Y-137128333D01*
X150280714Y-137080714D01*
X150614047Y-137080714D01*
X150804523Y-137128333D01*
X150899761Y-137223571D01*
X150947380Y-137318809D01*
X150947380Y-137509285D01*
X150899761Y-137604523D01*
X150804523Y-137699761D01*
X150614047Y-137747380D01*
X150280714Y-137747380D01*
X150090238Y-137699761D01*
X149995000Y-137604523D01*
X149947380Y-137509285D01*
X151042619Y-136890238D02*
X151042619Y-136128333D01*
X149947380Y-135414047D02*
X149947380Y-135890238D01*
X150423571Y-135937857D01*
X150375952Y-135890238D01*
X150328333Y-135795000D01*
X150328333Y-135556904D01*
X150375952Y-135461666D01*
X150423571Y-135414047D01*
X150518809Y-135366428D01*
X150756904Y-135366428D01*
X150852142Y-135414047D01*
X150899761Y-135461666D01*
X150947380Y-135556904D01*
X150947380Y-135795000D01*
X150899761Y-135890238D01*
X150852142Y-135937857D01*
X149995000Y-131397142D02*
X149947380Y-131492380D01*
X149947380Y-131635238D01*
X149995000Y-131778095D01*
X150090238Y-131873333D01*
X150185476Y-131920952D01*
X150375952Y-131968571D01*
X150518809Y-131968571D01*
X150709285Y-131920952D01*
X150804523Y-131873333D01*
X150899761Y-131778095D01*
X150947380Y-131635238D01*
X150947380Y-131540000D01*
X150899761Y-131397142D01*
X150852142Y-131349523D01*
X150518809Y-131349523D01*
X150518809Y-131540000D01*
X150947380Y-130920952D02*
X149947380Y-130920952D01*
X149947380Y-130540000D01*
X149995000Y-130444761D01*
X150042619Y-130397142D01*
X150137857Y-130349523D01*
X150280714Y-130349523D01*
X150375952Y-130397142D01*
X150423571Y-130444761D01*
X150471190Y-130540000D01*
X150471190Y-130920952D01*
X150947380Y-129920952D02*
X149947380Y-129920952D01*
X149947380Y-129254285D02*
X149947380Y-129063809D01*
X149995000Y-128968571D01*
X150090238Y-128873333D01*
X150280714Y-128825714D01*
X150614047Y-128825714D01*
X150804523Y-128873333D01*
X150899761Y-128968571D01*
X150947380Y-129063809D01*
X150947380Y-129254285D01*
X150899761Y-129349523D01*
X150804523Y-129444761D01*
X150614047Y-129492380D01*
X150280714Y-129492380D01*
X150090238Y-129444761D01*
X149995000Y-129349523D01*
X149947380Y-129254285D01*
X151042619Y-128635238D02*
X151042619Y-127873333D01*
X150280714Y-127206666D02*
X150947380Y-127206666D01*
X149899761Y-127444761D02*
X150614047Y-127682857D01*
X150614047Y-127063809D01*
X149995000Y-121237142D02*
X149947380Y-121332380D01*
X149947380Y-121475238D01*
X149995000Y-121618095D01*
X150090238Y-121713333D01*
X150185476Y-121760952D01*
X150375952Y-121808571D01*
X150518809Y-121808571D01*
X150709285Y-121760952D01*
X150804523Y-121713333D01*
X150899761Y-121618095D01*
X150947380Y-121475238D01*
X150947380Y-121380000D01*
X150899761Y-121237142D01*
X150852142Y-121189523D01*
X150518809Y-121189523D01*
X150518809Y-121380000D01*
X150947380Y-120760952D02*
X149947380Y-120760952D01*
X149947380Y-120380000D01*
X149995000Y-120284761D01*
X150042619Y-120237142D01*
X150137857Y-120189523D01*
X150280714Y-120189523D01*
X150375952Y-120237142D01*
X150423571Y-120284761D01*
X150471190Y-120380000D01*
X150471190Y-120760952D01*
X150947380Y-119760952D02*
X149947380Y-119760952D01*
X149947380Y-119094285D02*
X149947380Y-118903809D01*
X149995000Y-118808571D01*
X150090238Y-118713333D01*
X150280714Y-118665714D01*
X150614047Y-118665714D01*
X150804523Y-118713333D01*
X150899761Y-118808571D01*
X150947380Y-118903809D01*
X150947380Y-119094285D01*
X150899761Y-119189523D01*
X150804523Y-119284761D01*
X150614047Y-119332380D01*
X150280714Y-119332380D01*
X150090238Y-119284761D01*
X149995000Y-119189523D01*
X149947380Y-119094285D01*
X151042619Y-118475238D02*
X151042619Y-117713333D01*
X149947380Y-117570476D02*
X149947380Y-116951428D01*
X150328333Y-117284761D01*
X150328333Y-117141904D01*
X150375952Y-117046666D01*
X150423571Y-116999047D01*
X150518809Y-116951428D01*
X150756904Y-116951428D01*
X150852142Y-116999047D01*
X150899761Y-117046666D01*
X150947380Y-117141904D01*
X150947380Y-117427619D01*
X150899761Y-117522857D01*
X150852142Y-117570476D01*
X149995000Y-113617142D02*
X149947380Y-113712380D01*
X149947380Y-113855238D01*
X149995000Y-113998095D01*
X150090238Y-114093333D01*
X150185476Y-114140952D01*
X150375952Y-114188571D01*
X150518809Y-114188571D01*
X150709285Y-114140952D01*
X150804523Y-114093333D01*
X150899761Y-113998095D01*
X150947380Y-113855238D01*
X150947380Y-113760000D01*
X150899761Y-113617142D01*
X150852142Y-113569523D01*
X150518809Y-113569523D01*
X150518809Y-113760000D01*
X150947380Y-113140952D02*
X149947380Y-113140952D01*
X149947380Y-112760000D01*
X149995000Y-112664761D01*
X150042619Y-112617142D01*
X150137857Y-112569523D01*
X150280714Y-112569523D01*
X150375952Y-112617142D01*
X150423571Y-112664761D01*
X150471190Y-112760000D01*
X150471190Y-113140952D01*
X150947380Y-112140952D02*
X149947380Y-112140952D01*
X149947380Y-111474285D02*
X149947380Y-111283809D01*
X149995000Y-111188571D01*
X150090238Y-111093333D01*
X150280714Y-111045714D01*
X150614047Y-111045714D01*
X150804523Y-111093333D01*
X150899761Y-111188571D01*
X150947380Y-111283809D01*
X150947380Y-111474285D01*
X150899761Y-111569523D01*
X150804523Y-111664761D01*
X150614047Y-111712380D01*
X150280714Y-111712380D01*
X150090238Y-111664761D01*
X149995000Y-111569523D01*
X149947380Y-111474285D01*
X151042619Y-110855238D02*
X151042619Y-110093333D01*
X150042619Y-109902857D02*
X149995000Y-109855238D01*
X149947380Y-109760000D01*
X149947380Y-109521904D01*
X149995000Y-109426666D01*
X150042619Y-109379047D01*
X150137857Y-109331428D01*
X150233095Y-109331428D01*
X150375952Y-109379047D01*
X150947380Y-109950476D01*
X150947380Y-109331428D01*
X149995000Y-104727142D02*
X149947380Y-104822380D01*
X149947380Y-104965238D01*
X149995000Y-105108095D01*
X150090238Y-105203333D01*
X150185476Y-105250952D01*
X150375952Y-105298571D01*
X150518809Y-105298571D01*
X150709285Y-105250952D01*
X150804523Y-105203333D01*
X150899761Y-105108095D01*
X150947380Y-104965238D01*
X150947380Y-104870000D01*
X150899761Y-104727142D01*
X150852142Y-104679523D01*
X150518809Y-104679523D01*
X150518809Y-104870000D01*
X150947380Y-104250952D02*
X149947380Y-104250952D01*
X149947380Y-103870000D01*
X149995000Y-103774761D01*
X150042619Y-103727142D01*
X150137857Y-103679523D01*
X150280714Y-103679523D01*
X150375952Y-103727142D01*
X150423571Y-103774761D01*
X150471190Y-103870000D01*
X150471190Y-104250952D01*
X150947380Y-103250952D02*
X149947380Y-103250952D01*
X149947380Y-102584285D02*
X149947380Y-102393809D01*
X149995000Y-102298571D01*
X150090238Y-102203333D01*
X150280714Y-102155714D01*
X150614047Y-102155714D01*
X150804523Y-102203333D01*
X150899761Y-102298571D01*
X150947380Y-102393809D01*
X150947380Y-102584285D01*
X150899761Y-102679523D01*
X150804523Y-102774761D01*
X150614047Y-102822380D01*
X150280714Y-102822380D01*
X150090238Y-102774761D01*
X149995000Y-102679523D01*
X149947380Y-102584285D01*
X151042619Y-101965238D02*
X151042619Y-101203333D01*
X150947380Y-100441428D02*
X150947380Y-101012857D01*
X150947380Y-100727142D02*
X149947380Y-100727142D01*
X150090238Y-100822380D01*
X150185476Y-100917619D01*
X150233095Y-101012857D01*
X152309523Y-165452380D02*
X152928571Y-165452380D01*
X152595238Y-165833333D01*
X152738095Y-165833333D01*
X152833333Y-165880952D01*
X152880952Y-165928571D01*
X152928571Y-166023809D01*
X152928571Y-166261904D01*
X152880952Y-166357142D01*
X152833333Y-166404761D01*
X152738095Y-166452380D01*
X152452380Y-166452380D01*
X152357142Y-166404761D01*
X152309523Y-166357142D01*
X153261904Y-165785714D02*
X153500000Y-166452380D01*
X153738095Y-165785714D01*
X154023809Y-165452380D02*
X154642857Y-165452380D01*
X154309523Y-165833333D01*
X154452380Y-165833333D01*
X154547619Y-165880952D01*
X154595238Y-165928571D01*
X154642857Y-166023809D01*
X154642857Y-166261904D01*
X154595238Y-166357142D01*
X154547619Y-166404761D01*
X154452380Y-166452380D01*
X154166666Y-166452380D01*
X154071428Y-166404761D01*
X154023809Y-166357142D01*
D11*
X144741422Y-161040000D02*
X145258578Y-161040000D01*
X144741422Y-162460000D02*
X145258578Y-162460000D01*
X144008578Y-153040000D02*
X143491422Y-153040000D01*
X144008578Y-154460000D02*
X143491422Y-154460000D01*
X137960000Y-150741422D02*
X137960000Y-151258578D01*
X136540000Y-150741422D02*
X136540000Y-151258578D01*
X131991422Y-149460000D02*
X132508578Y-149460000D01*
X131991422Y-148040000D02*
X132508578Y-148040000D01*
X145250000Y-160310000D02*
X147200000Y-160310000D01*
X145250000Y-160310000D02*
X143300000Y-160310000D01*
X145250000Y-155190000D02*
X147200000Y-155190000D01*
X145250000Y-155190000D02*
X141800000Y-155190000D01*
D12*
X142600000Y-149400000D02*
X146400000Y-149400000D01*
X146400000Y-149400000D02*
X146400000Y-151600000D01*
X146400000Y-151600000D02*
X142600000Y-151600000D01*
X142600000Y-151600000D02*
X142600000Y-149400000D01*
D11*
X149008578Y-164460000D02*
X148491422Y-164460000D01*
X149008578Y-163040000D02*
X148491422Y-163040000D01*
X140991422Y-163040000D02*
X141508578Y-163040000D01*
X140991422Y-164460000D02*
X141508578Y-164460000D01*
X145258578Y-163040000D02*
X144741422Y-163040000D01*
X145258578Y-164460000D02*
X144741422Y-164460000D01*
X146560000Y-171460000D02*
X146560000Y-165490000D01*
X146560000Y-165490000D02*
X138940000Y-165490000D01*
X138940000Y-165490000D02*
X138940000Y-171460000D01*
X138940000Y-171460000D02*
X146560000Y-171460000D01*
X143250000Y-171450000D02*
X143250000Y-170700000D01*
X143250000Y-170700000D02*
X142250000Y-170700000D01*
X142250000Y-170700000D02*
X142250000Y-171450000D01*
X142250000Y-171450000D02*
X143250000Y-171450000D01*
X146550000Y-171450000D02*
X146550000Y-170700000D01*
X146550000Y-170700000D02*
X144750000Y-170700000D01*
X144750000Y-170700000D02*
X144750000Y-171450000D01*
X144750000Y-171450000D02*
X146550000Y-171450000D01*
X140750000Y-171450000D02*
X140750000Y-170700000D01*
X140750000Y-170700000D02*
X138950000Y-170700000D01*
X138950000Y-170700000D02*
X138950000Y-171450000D01*
X138950000Y-171450000D02*
X140750000Y-171450000D01*
X146550000Y-169200000D02*
X145800000Y-169200000D01*
X145800000Y-169200000D02*
X145800000Y-166250000D01*
X145800000Y-166250000D02*
X142750000Y-166250000D01*
X138950000Y-169200000D02*
X139700000Y-169200000D01*
X139700000Y-169200000D02*
X139700000Y-166250000D01*
X139700000Y-166250000D02*
X142750000Y-166250000D01*
X145600000Y-171750000D02*
X146850000Y-171750000D01*
X146850000Y-171750000D02*
X146850000Y-170500000D01*
X140460000Y-159508578D02*
X140460000Y-158991422D01*
X139040000Y-159508578D02*
X139040000Y-158991422D01*
X132500000Y-138250000D02*
X132650000Y-138250000D01*
X132500000Y-146250000D02*
X132500000Y-138250000D01*
X132650000Y-146250000D02*
X132500000Y-146250000D01*
X136500000Y-146250000D02*
X136350000Y-146250000D01*
X136500000Y-138250000D02*
X136500000Y-146250000D01*
X136350000Y-138250000D02*
X136500000Y-138250000D01*
X132650000Y-146250000D02*
X132650000Y-147950000D01*
X145975000Y-105151422D02*
X145975000Y-105668578D01*
X147395000Y-105151422D02*
X147395000Y-105668578D01*
X145975000Y-110748578D02*
X145975000Y-110231422D01*
X147395000Y-110748578D02*
X147395000Y-110231422D01*
X149300000Y-123566422D02*
X149300000Y-124083578D01*
X147880000Y-123566422D02*
X147880000Y-124083578D01*
X149300000Y-129798578D02*
X149300000Y-129281422D01*
X147880000Y-129798578D02*
X147880000Y-129281422D01*
D12*
X156100000Y-171400000D02*
X153900000Y-171400000D01*
X156100000Y-167600000D02*
X156100000Y-171400000D01*
X153900000Y-167600000D02*
X156100000Y-167600000D01*
X153900000Y-171400000D02*
X153900000Y-167600000D01*
X142880000Y-119210000D02*
X142880000Y-117010000D01*
X146680000Y-119210000D02*
X142880000Y-119210000D01*
X146680000Y-117010000D02*
X146680000Y-119210000D01*
X142880000Y-117010000D02*
X146680000Y-117010000D01*
D11*
X162235000Y-105620000D02*
X162235000Y-104370000D01*
X160985000Y-105620000D02*
X162235000Y-105620000D01*
X152585000Y-100120000D02*
X156885000Y-100120000D01*
X152585000Y-103070000D02*
X152585000Y-100120000D01*
X151835000Y-103070000D02*
X152585000Y-103070000D01*
X161185000Y-100120000D02*
X156885000Y-100120000D01*
X161185000Y-103070000D02*
X161185000Y-100120000D01*
X161935000Y-103070000D02*
X161185000Y-103070000D01*
X151835000Y-105320000D02*
X153635000Y-105320000D01*
X151835000Y-104570000D02*
X151835000Y-105320000D01*
X153635000Y-104570000D02*
X151835000Y-104570000D01*
X153635000Y-105320000D02*
X153635000Y-104570000D01*
X160135000Y-105320000D02*
X161935000Y-105320000D01*
X160135000Y-104570000D02*
X160135000Y-105320000D01*
X161935000Y-104570000D02*
X160135000Y-104570000D01*
X161935000Y-105320000D02*
X161935000Y-104570000D01*
X155135000Y-105320000D02*
X158635000Y-105320000D01*
X155135000Y-104570000D02*
X155135000Y-105320000D01*
X158635000Y-104570000D02*
X155135000Y-104570000D01*
X158635000Y-105320000D02*
X158635000Y-104570000D01*
X151825000Y-105330000D02*
X161945000Y-105330000D01*
X151825000Y-99360000D02*
X151825000Y-105330000D01*
X161945000Y-99360000D02*
X151825000Y-99360000D01*
X161945000Y-105330000D02*
X161945000Y-99360000D01*
X161945000Y-114220000D02*
X161945000Y-108250000D01*
X161945000Y-108250000D02*
X151825000Y-108250000D01*
X151825000Y-108250000D02*
X151825000Y-114220000D01*
X151825000Y-114220000D02*
X161945000Y-114220000D01*
X158635000Y-114210000D02*
X158635000Y-113460000D01*
X158635000Y-113460000D02*
X155135000Y-113460000D01*
X155135000Y-113460000D02*
X155135000Y-114210000D01*
X155135000Y-114210000D02*
X158635000Y-114210000D01*
X161935000Y-114210000D02*
X161935000Y-113460000D01*
X161935000Y-113460000D02*
X160135000Y-113460000D01*
X160135000Y-113460000D02*
X160135000Y-114210000D01*
X160135000Y-114210000D02*
X161935000Y-114210000D01*
X153635000Y-114210000D02*
X153635000Y-113460000D01*
X153635000Y-113460000D02*
X151835000Y-113460000D01*
X151835000Y-113460000D02*
X151835000Y-114210000D01*
X151835000Y-114210000D02*
X153635000Y-114210000D01*
X161935000Y-111960000D02*
X161185000Y-111960000D01*
X161185000Y-111960000D02*
X161185000Y-109010000D01*
X161185000Y-109010000D02*
X156885000Y-109010000D01*
X151835000Y-111960000D02*
X152585000Y-111960000D01*
X152585000Y-111960000D02*
X152585000Y-109010000D01*
X152585000Y-109010000D02*
X156885000Y-109010000D01*
X160985000Y-114510000D02*
X162235000Y-114510000D01*
X162235000Y-114510000D02*
X162235000Y-113260000D01*
X162235000Y-123400000D02*
X162235000Y-122150000D01*
X160985000Y-123400000D02*
X162235000Y-123400000D01*
X152585000Y-117900000D02*
X156885000Y-117900000D01*
X152585000Y-120850000D02*
X152585000Y-117900000D01*
X151835000Y-120850000D02*
X152585000Y-120850000D01*
X161185000Y-117900000D02*
X156885000Y-117900000D01*
X161185000Y-120850000D02*
X161185000Y-117900000D01*
X161935000Y-120850000D02*
X161185000Y-120850000D01*
X151835000Y-123100000D02*
X153635000Y-123100000D01*
X151835000Y-122350000D02*
X151835000Y-123100000D01*
X153635000Y-122350000D02*
X151835000Y-122350000D01*
X153635000Y-123100000D02*
X153635000Y-122350000D01*
X160135000Y-123100000D02*
X161935000Y-123100000D01*
X160135000Y-122350000D02*
X160135000Y-123100000D01*
X161935000Y-122350000D02*
X160135000Y-122350000D01*
X161935000Y-123100000D02*
X161935000Y-122350000D01*
X155135000Y-123100000D02*
X158635000Y-123100000D01*
X155135000Y-122350000D02*
X155135000Y-123100000D01*
X158635000Y-122350000D02*
X155135000Y-122350000D01*
X158635000Y-123100000D02*
X158635000Y-122350000D01*
X151825000Y-123110000D02*
X161945000Y-123110000D01*
X151825000Y-117140000D02*
X151825000Y-123110000D01*
X161945000Y-117140000D02*
X151825000Y-117140000D01*
X161945000Y-123110000D02*
X161945000Y-117140000D01*
X161945000Y-132000000D02*
X161945000Y-126030000D01*
X161945000Y-126030000D02*
X151825000Y-126030000D01*
X151825000Y-126030000D02*
X151825000Y-132000000D01*
X151825000Y-132000000D02*
X161945000Y-132000000D01*
X158635000Y-131990000D02*
X158635000Y-131240000D01*
X158635000Y-131240000D02*
X155135000Y-131240000D01*
X155135000Y-131240000D02*
X155135000Y-131990000D01*
X155135000Y-131990000D02*
X158635000Y-131990000D01*
X161935000Y-131990000D02*
X161935000Y-131240000D01*
X161935000Y-131240000D02*
X160135000Y-131240000D01*
X160135000Y-131240000D02*
X160135000Y-131990000D01*
X160135000Y-131990000D02*
X161935000Y-131990000D01*
X153635000Y-131990000D02*
X153635000Y-131240000D01*
X153635000Y-131240000D02*
X151835000Y-131240000D01*
X151835000Y-131240000D02*
X151835000Y-131990000D01*
X151835000Y-131990000D02*
X153635000Y-131990000D01*
X161935000Y-129740000D02*
X161185000Y-129740000D01*
X161185000Y-129740000D02*
X161185000Y-126790000D01*
X161185000Y-126790000D02*
X156885000Y-126790000D01*
X151835000Y-129740000D02*
X152585000Y-129740000D01*
X152585000Y-129740000D02*
X152585000Y-126790000D01*
X152585000Y-126790000D02*
X156885000Y-126790000D01*
X160985000Y-132290000D02*
X162235000Y-132290000D01*
X162235000Y-132290000D02*
X162235000Y-131040000D01*
X128460000Y-125075000D02*
X122490000Y-125075000D01*
X122490000Y-125075000D02*
X122490000Y-142695000D01*
X122490000Y-142695000D02*
X128460000Y-142695000D01*
X128460000Y-142695000D02*
X128460000Y-125075000D01*
X128450000Y-128385000D02*
X127700000Y-128385000D01*
X127700000Y-128385000D02*
X127700000Y-139385000D01*
X127700000Y-139385000D02*
X128450000Y-139385000D01*
X128450000Y-139385000D02*
X128450000Y-128385000D01*
X128450000Y-125085000D02*
X127700000Y-125085000D01*
X127700000Y-125085000D02*
X127700000Y-126885000D01*
X127700000Y-126885000D02*
X128450000Y-126885000D01*
X128450000Y-126885000D02*
X128450000Y-125085000D01*
X128450000Y-140885000D02*
X127700000Y-140885000D01*
X127700000Y-140885000D02*
X127700000Y-142685000D01*
X127700000Y-142685000D02*
X128450000Y-142685000D01*
X128450000Y-142685000D02*
X128450000Y-140885000D01*
X126200000Y-125085000D02*
X126200000Y-125835000D01*
X126200000Y-125835000D02*
X123250000Y-125835000D01*
X123250000Y-125835000D02*
X123250000Y-133885000D01*
X126200000Y-142685000D02*
X126200000Y-141935000D01*
X126200000Y-141935000D02*
X123250000Y-141935000D01*
X123250000Y-141935000D02*
X123250000Y-133885000D01*
X128750000Y-126035000D02*
X128750000Y-124785000D01*
X128750000Y-124785000D02*
X127500000Y-124785000D01*
X162235000Y-140250000D02*
X162235000Y-139000000D01*
X160985000Y-140250000D02*
X162235000Y-140250000D01*
X152585000Y-134750000D02*
X156885000Y-134750000D01*
X152585000Y-137700000D02*
X152585000Y-134750000D01*
X151835000Y-137700000D02*
X152585000Y-137700000D01*
X161185000Y-134750000D02*
X156885000Y-134750000D01*
X161185000Y-137700000D02*
X161185000Y-134750000D01*
X161935000Y-137700000D02*
X161185000Y-137700000D01*
X151835000Y-139950000D02*
X153635000Y-139950000D01*
X151835000Y-139200000D02*
X151835000Y-139950000D01*
X153635000Y-139200000D02*
X151835000Y-139200000D01*
X153635000Y-139950000D02*
X153635000Y-139200000D01*
X160135000Y-139950000D02*
X161935000Y-139950000D01*
X160135000Y-139200000D02*
X160135000Y-139950000D01*
X161935000Y-139200000D02*
X160135000Y-139200000D01*
X161935000Y-139950000D02*
X161935000Y-139200000D01*
X155135000Y-139950000D02*
X158635000Y-139950000D01*
X155135000Y-139200000D02*
X155135000Y-139950000D01*
X158635000Y-139200000D02*
X155135000Y-139200000D01*
X158635000Y-139950000D02*
X158635000Y-139200000D01*
X151825000Y-139960000D02*
X161945000Y-139960000D01*
X151825000Y-133990000D02*
X151825000Y-139960000D01*
X161945000Y-133990000D02*
X151825000Y-133990000D01*
X161945000Y-139960000D02*
X161945000Y-133990000D01*
X161945000Y-147710000D02*
X161945000Y-141740000D01*
X161945000Y-141740000D02*
X151825000Y-141740000D01*
X151825000Y-141740000D02*
X151825000Y-147710000D01*
X151825000Y-147710000D02*
X161945000Y-147710000D01*
X158635000Y-147700000D02*
X158635000Y-146950000D01*
X158635000Y-146950000D02*
X155135000Y-146950000D01*
X155135000Y-146950000D02*
X155135000Y-147700000D01*
X155135000Y-147700000D02*
X158635000Y-147700000D01*
X161935000Y-147700000D02*
X161935000Y-146950000D01*
X161935000Y-146950000D02*
X160135000Y-146950000D01*
X160135000Y-146950000D02*
X160135000Y-147700000D01*
X160135000Y-147700000D02*
X161935000Y-147700000D01*
X153635000Y-147700000D02*
X153635000Y-146950000D01*
X153635000Y-146950000D02*
X151835000Y-146950000D01*
X151835000Y-146950000D02*
X151835000Y-147700000D01*
X151835000Y-147700000D02*
X153635000Y-147700000D01*
X161935000Y-145450000D02*
X161185000Y-145450000D01*
X161185000Y-145450000D02*
X161185000Y-142500000D01*
X161185000Y-142500000D02*
X156885000Y-142500000D01*
X151835000Y-145450000D02*
X152585000Y-145450000D01*
X152585000Y-145450000D02*
X152585000Y-142500000D01*
X152585000Y-142500000D02*
X156885000Y-142500000D01*
X160985000Y-148000000D02*
X162235000Y-148000000D01*
X162235000Y-148000000D02*
X162235000Y-146750000D01*
X162235000Y-156000000D02*
X162235000Y-154750000D01*
X160985000Y-156000000D02*
X162235000Y-156000000D01*
X152585000Y-150500000D02*
X156885000Y-150500000D01*
X152585000Y-153450000D02*
X152585000Y-150500000D01*
X151835000Y-153450000D02*
X152585000Y-153450000D01*
X161185000Y-150500000D02*
X156885000Y-150500000D01*
X161185000Y-153450000D02*
X161185000Y-150500000D01*
X161935000Y-153450000D02*
X161185000Y-153450000D01*
X151835000Y-155700000D02*
X153635000Y-155700000D01*
X151835000Y-154950000D02*
X151835000Y-155700000D01*
X153635000Y-154950000D02*
X151835000Y-154950000D01*
X153635000Y-155700000D02*
X153635000Y-154950000D01*
X160135000Y-155700000D02*
X161935000Y-155700000D01*
X160135000Y-154950000D02*
X160135000Y-155700000D01*
X161935000Y-154950000D02*
X160135000Y-154950000D01*
X161935000Y-155700000D02*
X161935000Y-154950000D01*
X155135000Y-155700000D02*
X158635000Y-155700000D01*
X155135000Y-154950000D02*
X155135000Y-155700000D01*
X158635000Y-154950000D02*
X155135000Y-154950000D01*
X158635000Y-155700000D02*
X158635000Y-154950000D01*
X151825000Y-155710000D02*
X161945000Y-155710000D01*
X151825000Y-149740000D02*
X151825000Y-155710000D01*
X161945000Y-149740000D02*
X151825000Y-149740000D01*
X161945000Y-155710000D02*
X161945000Y-149740000D01*
X162350000Y-163750000D02*
X162350000Y-162500000D01*
X161100000Y-163750000D02*
X162350000Y-163750000D01*
X152700000Y-158250000D02*
X157000000Y-158250000D01*
X152700000Y-161200000D02*
X152700000Y-158250000D01*
X151950000Y-161200000D02*
X152700000Y-161200000D01*
X161300000Y-158250000D02*
X157000000Y-158250000D01*
X161300000Y-161200000D02*
X161300000Y-158250000D01*
X162050000Y-161200000D02*
X161300000Y-161200000D01*
X151950000Y-163450000D02*
X153750000Y-163450000D01*
X151950000Y-162700000D02*
X151950000Y-163450000D01*
X153750000Y-162700000D02*
X151950000Y-162700000D01*
X153750000Y-163450000D02*
X153750000Y-162700000D01*
X160250000Y-163450000D02*
X162050000Y-163450000D01*
X160250000Y-162700000D02*
X160250000Y-163450000D01*
X162050000Y-162700000D02*
X160250000Y-162700000D01*
X162050000Y-163450000D02*
X162050000Y-162700000D01*
X155250000Y-163450000D02*
X158750000Y-163450000D01*
X155250000Y-162700000D02*
X155250000Y-163450000D01*
X158750000Y-162700000D02*
X155250000Y-162700000D01*
X158750000Y-163450000D02*
X158750000Y-162700000D01*
X151940000Y-163460000D02*
X162060000Y-163460000D01*
X151940000Y-157490000D02*
X151940000Y-163460000D01*
X162060000Y-157490000D02*
X151940000Y-157490000D01*
X162060000Y-163460000D02*
X162060000Y-157490000D01*
X128750000Y-144150000D02*
X127500000Y-144150000D01*
X128750000Y-145400000D02*
X128750000Y-144150000D01*
X123250000Y-151300000D02*
X123250000Y-148250000D01*
X126200000Y-151300000D02*
X123250000Y-151300000D01*
X126200000Y-152050000D02*
X126200000Y-151300000D01*
X123250000Y-145200000D02*
X123250000Y-148250000D01*
X126200000Y-145200000D02*
X123250000Y-145200000D01*
X126200000Y-144450000D02*
X126200000Y-145200000D01*
X128450000Y-152050000D02*
X128450000Y-150250000D01*
X127700000Y-152050000D02*
X128450000Y-152050000D01*
X127700000Y-150250000D02*
X127700000Y-152050000D01*
X128450000Y-150250000D02*
X127700000Y-150250000D01*
X128450000Y-146250000D02*
X128450000Y-144450000D01*
X127700000Y-146250000D02*
X128450000Y-146250000D01*
X127700000Y-144450000D02*
X127700000Y-146250000D01*
X128450000Y-144450000D02*
X127700000Y-144450000D01*
X128450000Y-148750000D02*
X128450000Y-147750000D01*
X127700000Y-148750000D02*
X128450000Y-148750000D01*
X127700000Y-147750000D02*
X127700000Y-148750000D01*
X128450000Y-147750000D02*
X127700000Y-147750000D01*
X128460000Y-152060000D02*
X128460000Y-144440000D01*
X122490000Y-152060000D02*
X128460000Y-152060000D01*
X122490000Y-144440000D02*
X122490000Y-152060000D01*
X128460000Y-144440000D02*
X122490000Y-144440000D01*
X128460000Y-113940000D02*
X122490000Y-113940000D01*
X122490000Y-113940000D02*
X122490000Y-124060000D01*
X122490000Y-124060000D02*
X128460000Y-124060000D01*
X128460000Y-124060000D02*
X128460000Y-113940000D01*
X128450000Y-117250000D02*
X127700000Y-117250000D01*
X127700000Y-117250000D02*
X127700000Y-120750000D01*
X127700000Y-120750000D02*
X128450000Y-120750000D01*
X128450000Y-120750000D02*
X128450000Y-117250000D01*
X128450000Y-113950000D02*
X127700000Y-113950000D01*
X127700000Y-113950000D02*
X127700000Y-115750000D01*
X127700000Y-115750000D02*
X128450000Y-115750000D01*
X128450000Y-115750000D02*
X128450000Y-113950000D01*
X128450000Y-122250000D02*
X127700000Y-122250000D01*
X127700000Y-122250000D02*
X127700000Y-124050000D01*
X127700000Y-124050000D02*
X128450000Y-124050000D01*
X128450000Y-124050000D02*
X128450000Y-122250000D01*
X126200000Y-113950000D02*
X126200000Y-114700000D01*
X126200000Y-114700000D02*
X123250000Y-114700000D01*
X123250000Y-114700000D02*
X123250000Y-119000000D01*
X126200000Y-124050000D02*
X126200000Y-123300000D01*
X126200000Y-123300000D02*
X123250000Y-123300000D01*
X123250000Y-123300000D02*
X123250000Y-119000000D01*
X128750000Y-114900000D02*
X128750000Y-113650000D01*
X128750000Y-113650000D02*
X127500000Y-113650000D01*
X139710000Y-103758578D02*
X139710000Y-103241422D01*
X138290000Y-103758578D02*
X138290000Y-103241422D01*
D13*
X134150000Y-99825000D02*
X133850000Y-99825000D01*
X134150000Y-99450000D02*
X134150000Y-99825000D01*
X130850000Y-99825000D02*
X130850000Y-99375000D01*
X131150000Y-99825000D02*
X130850000Y-99825000D01*
X131075000Y-99825000D02*
X131200000Y-99825000D01*
X130850000Y-98175000D02*
X131200000Y-98175000D01*
X130850000Y-98650000D02*
X130850000Y-98175000D01*
X133825000Y-98175000D02*
X133825000Y-97400000D01*
X133875000Y-98175000D02*
X133825000Y-98175000D01*
X134150000Y-98550000D02*
X133875000Y-98175000D01*
X134150000Y-98825000D02*
X134150000Y-98550000D01*
X131850000Y-109175000D02*
X131850000Y-109450000D01*
X131850000Y-109450000D02*
X132125000Y-109825000D01*
X132125000Y-109825000D02*
X132175000Y-109825000D01*
X132175000Y-109825000D02*
X132175000Y-110600000D01*
X135150000Y-109350000D02*
X135150000Y-109825000D01*
X135150000Y-109825000D02*
X134800000Y-109825000D01*
X134925000Y-108175000D02*
X134800000Y-108175000D01*
X134850000Y-108175000D02*
X135150000Y-108175000D01*
X135150000Y-108175000D02*
X135150000Y-108625000D01*
X131850000Y-108550000D02*
X131850000Y-108175000D01*
X131850000Y-108175000D02*
X132150000Y-108175000D01*
D11*
X136290000Y-108741422D02*
X136290000Y-109258578D01*
X137710000Y-108741422D02*
X137710000Y-109258578D01*
X133758578Y-113210000D02*
X133241422Y-113210000D01*
X133758578Y-111790000D02*
X133241422Y-111790000D01*
X129790000Y-110741422D02*
X129790000Y-111258578D01*
X131210000Y-110741422D02*
X131210000Y-111258578D01*
X132758578Y-92290000D02*
X132241422Y-92290000D01*
X132758578Y-93710000D02*
X132241422Y-93710000D01*
X132241422Y-94790000D02*
X132758578Y-94790000D01*
X132241422Y-96210000D02*
X132758578Y-96210000D01*
X135290000Y-97258578D02*
X135290000Y-96741422D01*
X136710000Y-97258578D02*
X136710000Y-96741422D01*
X133500000Y-106560000D02*
X136950000Y-106560000D01*
X133500000Y-106560000D02*
X131550000Y-106560000D01*
X133500000Y-101440000D02*
X135450000Y-101440000D01*
X133500000Y-101440000D02*
X131550000Y-101440000D01*
X128750000Y-97150000D02*
X127500000Y-97150000D01*
X128750000Y-98400000D02*
X128750000Y-97150000D01*
X123250000Y-111800000D02*
X123250000Y-105000000D01*
X126200000Y-111800000D02*
X123250000Y-111800000D01*
X126200000Y-112550000D02*
X126200000Y-111800000D01*
X123250000Y-98200000D02*
X123250000Y-105000000D01*
X126200000Y-98200000D02*
X123250000Y-98200000D01*
X126200000Y-97450000D02*
X126200000Y-98200000D01*
X128450000Y-112550000D02*
X128450000Y-110750000D01*
X127700000Y-112550000D02*
X128450000Y-112550000D01*
X127700000Y-110750000D02*
X127700000Y-112550000D01*
X128450000Y-110750000D02*
X127700000Y-110750000D01*
X128450000Y-99250000D02*
X128450000Y-97450000D01*
X127700000Y-99250000D02*
X128450000Y-99250000D01*
X127700000Y-97450000D02*
X127700000Y-99250000D01*
X128450000Y-97450000D02*
X127700000Y-97450000D01*
X128450000Y-109250000D02*
X128450000Y-100750000D01*
X127700000Y-109250000D02*
X128450000Y-109250000D01*
X127700000Y-100750000D02*
X127700000Y-109250000D01*
X128450000Y-100750000D02*
X127700000Y-100750000D01*
X128460000Y-112560000D02*
X128460000Y-97440000D01*
X122490000Y-112560000D02*
X128460000Y-112560000D01*
X122490000Y-97440000D02*
X122490000Y-112560000D01*
X128460000Y-97440000D02*
X122490000Y-97440000D01*
X138250000Y-165200000D02*
X137750000Y-164700000D01*
X138250000Y-164200000D02*
X138250000Y-165200000D01*
X137750000Y-164700000D02*
X138250000Y-164200000D01*
X120825000Y-156140000D02*
X120825000Y-161700000D01*
X137555000Y-156140000D02*
X137555000Y-161700000D01*
X137555000Y-156140000D02*
X120825000Y-156140000D01*
X120825000Y-172110000D02*
X120825000Y-164500000D01*
X137555000Y-172110000D02*
X137555000Y-164500000D01*
X137555000Y-172110000D02*
X120825000Y-172110000D01*
X133290000Y-152241422D02*
X133290000Y-152758578D01*
X134710000Y-152241422D02*
X134710000Y-152758578D01*
X130210000Y-153241422D02*
X130210000Y-153758578D01*
X128790000Y-153241422D02*
X128790000Y-153758578D01*
D12*
X147583333Y-162202380D02*
X147250000Y-161726190D01*
X147011904Y-162202380D02*
X147011904Y-161202380D01*
X147392857Y-161202380D01*
X147488095Y-161250000D01*
X147535714Y-161297619D01*
X147583333Y-161392857D01*
X147583333Y-161535714D01*
X147535714Y-161630952D01*
X147488095Y-161678571D01*
X147392857Y-161726190D01*
X147011904Y-161726190D01*
X147916666Y-161202380D02*
X148535714Y-161202380D01*
X148202380Y-161583333D01*
X148345238Y-161583333D01*
X148440476Y-161630952D01*
X148488095Y-161678571D01*
X148535714Y-161773809D01*
X148535714Y-162011904D01*
X148488095Y-162107142D01*
X148440476Y-162154761D01*
X148345238Y-162202380D01*
X148059523Y-162202380D01*
X147964285Y-162154761D01*
X147916666Y-162107142D01*
X146583333Y-152952380D02*
X146250000Y-152476190D01*
X146011904Y-152952380D02*
X146011904Y-151952380D01*
X146392857Y-151952380D01*
X146488095Y-152000000D01*
X146535714Y-152047619D01*
X146583333Y-152142857D01*
X146583333Y-152285714D01*
X146535714Y-152380952D01*
X146488095Y-152428571D01*
X146392857Y-152476190D01*
X146011904Y-152476190D01*
X146964285Y-152047619D02*
X147011904Y-152000000D01*
X147107142Y-151952380D01*
X147345238Y-151952380D01*
X147440476Y-152000000D01*
X147488095Y-152047619D01*
X147535714Y-152142857D01*
X147535714Y-152238095D01*
X147488095Y-152380952D01*
X146916666Y-152952380D01*
X147535714Y-152952380D01*
X137702380Y-154642857D02*
X137226190Y-154976190D01*
X137702380Y-155214285D02*
X136702380Y-155214285D01*
X136702380Y-154833333D01*
X136750000Y-154738095D01*
X136797619Y-154690476D01*
X136892857Y-154642857D01*
X137035714Y-154642857D01*
X137130952Y-154690476D01*
X137178571Y-154738095D01*
X137226190Y-154833333D01*
X137226190Y-155214285D01*
X137702380Y-153690476D02*
X137702380Y-154261904D01*
X137702380Y-153976190D02*
X136702380Y-153976190D01*
X136845238Y-154071428D01*
X136940476Y-154166666D01*
X136988095Y-154261904D01*
X137702380Y-152738095D02*
X137702380Y-153309523D01*
X137702380Y-153023809D02*
X136702380Y-153023809D01*
X136845238Y-153119047D01*
X136940476Y-153214285D01*
X136988095Y-153309523D01*
X134833333Y-149452380D02*
X134500000Y-148976190D01*
X134261904Y-149452380D02*
X134261904Y-148452380D01*
X134642857Y-148452380D01*
X134738095Y-148500000D01*
X134785714Y-148547619D01*
X134833333Y-148642857D01*
X134833333Y-148785714D01*
X134785714Y-148880952D01*
X134738095Y-148928571D01*
X134642857Y-148976190D01*
X134261904Y-148976190D01*
X135785714Y-149452380D02*
X135214285Y-149452380D01*
X135500000Y-149452380D02*
X135500000Y-148452380D01*
X135404761Y-148595238D01*
X135309523Y-148690476D01*
X135214285Y-148738095D01*
X147488095Y-153702380D02*
X147488095Y-154511904D01*
X147535714Y-154607142D01*
X147583333Y-154654761D01*
X147678571Y-154702380D01*
X147869047Y-154702380D01*
X147964285Y-154654761D01*
X148011904Y-154607142D01*
X148059523Y-154511904D01*
X148059523Y-153702380D01*
X148964285Y-154035714D02*
X148964285Y-154702380D01*
X148726190Y-153654761D02*
X148488095Y-154369047D01*
X149107142Y-154369047D01*
X150833333Y-165357142D02*
X150785714Y-165404761D01*
X150642857Y-165452380D01*
X150547619Y-165452380D01*
X150404761Y-165404761D01*
X150309523Y-165309523D01*
X150261904Y-165214285D01*
X150214285Y-165023809D01*
X150214285Y-164880952D01*
X150261904Y-164690476D01*
X150309523Y-164595238D01*
X150404761Y-164500000D01*
X150547619Y-164452380D01*
X150642857Y-164452380D01*
X150785714Y-164500000D01*
X150833333Y-164547619D01*
X151690476Y-164452380D02*
X151500000Y-164452380D01*
X151404761Y-164500000D01*
X151357142Y-164547619D01*
X151261904Y-164690476D01*
X151214285Y-164880952D01*
X151214285Y-165261904D01*
X151261904Y-165357142D01*
X151309523Y-165404761D01*
X151404761Y-165452380D01*
X151595238Y-165452380D01*
X151690476Y-165404761D01*
X151738095Y-165357142D01*
X151785714Y-165261904D01*
X151785714Y-165023809D01*
X151738095Y-164928571D01*
X151690476Y-164880952D01*
X151595238Y-164833333D01*
X151404761Y-164833333D01*
X151309523Y-164880952D01*
X151261904Y-164928571D01*
X151214285Y-165023809D01*
X140833333Y-162357142D02*
X140785714Y-162404761D01*
X140642857Y-162452380D01*
X140547619Y-162452380D01*
X140404761Y-162404761D01*
X140309523Y-162309523D01*
X140261904Y-162214285D01*
X140214285Y-162023809D01*
X140214285Y-161880952D01*
X140261904Y-161690476D01*
X140309523Y-161595238D01*
X140404761Y-161500000D01*
X140547619Y-161452380D01*
X140642857Y-161452380D01*
X140785714Y-161500000D01*
X140833333Y-161547619D01*
X141738095Y-161452380D02*
X141261904Y-161452380D01*
X141214285Y-161928571D01*
X141261904Y-161880952D01*
X141357142Y-161833333D01*
X141595238Y-161833333D01*
X141690476Y-161880952D01*
X141738095Y-161928571D01*
X141785714Y-162023809D01*
X141785714Y-162261904D01*
X141738095Y-162357142D01*
X141690476Y-162404761D01*
X141595238Y-162452380D01*
X141357142Y-162452380D01*
X141261904Y-162404761D01*
X141214285Y-162357142D01*
X147833333Y-166107142D02*
X147785714Y-166154761D01*
X147642857Y-166202380D01*
X147547619Y-166202380D01*
X147404761Y-166154761D01*
X147309523Y-166059523D01*
X147261904Y-165964285D01*
X147214285Y-165773809D01*
X147214285Y-165630952D01*
X147261904Y-165440476D01*
X147309523Y-165345238D01*
X147404761Y-165250000D01*
X147547619Y-165202380D01*
X147642857Y-165202380D01*
X147785714Y-165250000D01*
X147833333Y-165297619D01*
X148404761Y-165630952D02*
X148309523Y-165583333D01*
X148261904Y-165535714D01*
X148214285Y-165440476D01*
X148214285Y-165392857D01*
X148261904Y-165297619D01*
X148309523Y-165250000D01*
X148404761Y-165202380D01*
X148595238Y-165202380D01*
X148690476Y-165250000D01*
X148738095Y-165297619D01*
X148785714Y-165392857D01*
X148785714Y-165440476D01*
X148738095Y-165535714D01*
X148690476Y-165583333D01*
X148595238Y-165630952D01*
X148404761Y-165630952D01*
X148309523Y-165678571D01*
X148261904Y-165726190D01*
X148214285Y-165821428D01*
X148214285Y-166011904D01*
X148261904Y-166107142D01*
X148309523Y-166154761D01*
X148404761Y-166202380D01*
X148595238Y-166202380D01*
X148690476Y-166154761D01*
X148738095Y-166107142D01*
X148785714Y-166011904D01*
X148785714Y-165821428D01*
X148738095Y-165726190D01*
X148690476Y-165678571D01*
X148595238Y-165630952D01*
X147166666Y-166952380D02*
X147166666Y-167666666D01*
X147119047Y-167809523D01*
X147023809Y-167904761D01*
X146880952Y-167952380D01*
X146785714Y-167952380D01*
X147547619Y-166952380D02*
X148214285Y-166952380D01*
X147785714Y-167952380D01*
X139333333Y-157452380D02*
X139000000Y-156976190D01*
X138761904Y-157452380D02*
X138761904Y-156452380D01*
X139142857Y-156452380D01*
X139238095Y-156500000D01*
X139285714Y-156547619D01*
X139333333Y-156642857D01*
X139333333Y-156785714D01*
X139285714Y-156880952D01*
X139238095Y-156928571D01*
X139142857Y-156976190D01*
X138761904Y-156976190D01*
X140190476Y-156785714D02*
X140190476Y-157452380D01*
X139952380Y-156404761D02*
X139714285Y-157119047D01*
X140333333Y-157119047D01*
X137202380Y-145011904D02*
X138011904Y-145011904D01*
X138107142Y-144964285D01*
X138154761Y-144916666D01*
X138202380Y-144821428D01*
X138202380Y-144630952D01*
X138154761Y-144535714D01*
X138107142Y-144488095D01*
X138011904Y-144440476D01*
X137202380Y-144440476D01*
X138202380Y-143440476D02*
X138202380Y-144011904D01*
X138202380Y-143726190D02*
X137202380Y-143726190D01*
X137345238Y-143821428D01*
X137440476Y-143916666D01*
X137488095Y-144011904D01*
X143978333Y-105767142D02*
X143930714Y-105814761D01*
X143787857Y-105862380D01*
X143692619Y-105862380D01*
X143549761Y-105814761D01*
X143454523Y-105719523D01*
X143406904Y-105624285D01*
X143359285Y-105433809D01*
X143359285Y-105290952D01*
X143406904Y-105100476D01*
X143454523Y-105005238D01*
X143549761Y-104910000D01*
X143692619Y-104862380D01*
X143787857Y-104862380D01*
X143930714Y-104910000D01*
X143978333Y-104957619D01*
X144930714Y-105862380D02*
X144359285Y-105862380D01*
X144645000Y-105862380D02*
X144645000Y-104862380D01*
X144549761Y-105005238D01*
X144454523Y-105100476D01*
X144359285Y-105148095D01*
X143978333Y-110847142D02*
X143930714Y-110894761D01*
X143787857Y-110942380D01*
X143692619Y-110942380D01*
X143549761Y-110894761D01*
X143454523Y-110799523D01*
X143406904Y-110704285D01*
X143359285Y-110513809D01*
X143359285Y-110370952D01*
X143406904Y-110180476D01*
X143454523Y-110085238D01*
X143549761Y-109990000D01*
X143692619Y-109942380D01*
X143787857Y-109942380D01*
X143930714Y-109990000D01*
X143978333Y-110037619D01*
X144359285Y-110037619D02*
X144406904Y-109990000D01*
X144502142Y-109942380D01*
X144740238Y-109942380D01*
X144835476Y-109990000D01*
X144883095Y-110037619D01*
X144930714Y-110132857D01*
X144930714Y-110228095D01*
X144883095Y-110370952D01*
X144311666Y-110942380D01*
X144930714Y-110942380D01*
X146518333Y-124182142D02*
X146470714Y-124229761D01*
X146327857Y-124277380D01*
X146232619Y-124277380D01*
X146089761Y-124229761D01*
X145994523Y-124134523D01*
X145946904Y-124039285D01*
X145899285Y-123848809D01*
X145899285Y-123705952D01*
X145946904Y-123515476D01*
X145994523Y-123420238D01*
X146089761Y-123325000D01*
X146232619Y-123277380D01*
X146327857Y-123277380D01*
X146470714Y-123325000D01*
X146518333Y-123372619D01*
X146851666Y-123277380D02*
X147470714Y-123277380D01*
X147137380Y-123658333D01*
X147280238Y-123658333D01*
X147375476Y-123705952D01*
X147423095Y-123753571D01*
X147470714Y-123848809D01*
X147470714Y-124086904D01*
X147423095Y-124182142D01*
X147375476Y-124229761D01*
X147280238Y-124277380D01*
X146994523Y-124277380D01*
X146899285Y-124229761D01*
X146851666Y-124182142D01*
X148423333Y-132437142D02*
X148375714Y-132484761D01*
X148232857Y-132532380D01*
X148137619Y-132532380D01*
X147994761Y-132484761D01*
X147899523Y-132389523D01*
X147851904Y-132294285D01*
X147804285Y-132103809D01*
X147804285Y-131960952D01*
X147851904Y-131770476D01*
X147899523Y-131675238D01*
X147994761Y-131580000D01*
X148137619Y-131532380D01*
X148232857Y-131532380D01*
X148375714Y-131580000D01*
X148423333Y-131627619D01*
X149280476Y-131865714D02*
X149280476Y-132532380D01*
X149042380Y-131484761D02*
X148804285Y-132199047D01*
X149423333Y-132199047D01*
X156551666Y-105872380D02*
X156551666Y-106586666D01*
X156504047Y-106729523D01*
X156408809Y-106824761D01*
X156265952Y-106872380D01*
X156170714Y-106872380D01*
X156932619Y-105872380D02*
X157551666Y-105872380D01*
X157218333Y-106253333D01*
X157361190Y-106253333D01*
X157456428Y-106300952D01*
X157504047Y-106348571D01*
X157551666Y-106443809D01*
X157551666Y-106681904D01*
X157504047Y-106777142D01*
X157456428Y-106824761D01*
X157361190Y-106872380D01*
X157075476Y-106872380D01*
X156980238Y-106824761D01*
X156932619Y-106777142D01*
X156551666Y-114762380D02*
X156551666Y-115476666D01*
X156504047Y-115619523D01*
X156408809Y-115714761D01*
X156265952Y-115762380D01*
X156170714Y-115762380D01*
X157456428Y-115095714D02*
X157456428Y-115762380D01*
X157218333Y-114714761D02*
X156980238Y-115429047D01*
X157599285Y-115429047D01*
X156551666Y-123652380D02*
X156551666Y-124366666D01*
X156504047Y-124509523D01*
X156408809Y-124604761D01*
X156265952Y-124652380D01*
X156170714Y-124652380D01*
X157504047Y-123652380D02*
X157027857Y-123652380D01*
X156980238Y-124128571D01*
X157027857Y-124080952D01*
X157123095Y-124033333D01*
X157361190Y-124033333D01*
X157456428Y-124080952D01*
X157504047Y-124128571D01*
X157551666Y-124223809D01*
X157551666Y-124461904D01*
X157504047Y-124557142D01*
X157456428Y-124604761D01*
X157361190Y-124652380D01*
X157123095Y-124652380D01*
X157027857Y-124604761D01*
X156980238Y-124557142D01*
X156551666Y-132542380D02*
X156551666Y-133256666D01*
X156504047Y-133399523D01*
X156408809Y-133494761D01*
X156265952Y-133542380D01*
X156170714Y-133542380D01*
X157456428Y-132542380D02*
X157265952Y-132542380D01*
X157170714Y-132590000D01*
X157123095Y-132637619D01*
X157027857Y-132780476D01*
X156980238Y-132970952D01*
X156980238Y-133351904D01*
X157027857Y-133447142D01*
X157075476Y-133494761D01*
X157170714Y-133542380D01*
X157361190Y-133542380D01*
X157456428Y-133494761D01*
X157504047Y-133447142D01*
X157551666Y-133351904D01*
X157551666Y-133113809D01*
X157504047Y-133018571D01*
X157456428Y-132970952D01*
X157361190Y-132923333D01*
X157170714Y-132923333D01*
X157075476Y-132970952D01*
X157027857Y-133018571D01*
X156980238Y-133113809D01*
X129002380Y-134218333D02*
X129716666Y-134218333D01*
X129859523Y-134265952D01*
X129954761Y-134361190D01*
X130002380Y-134504047D01*
X130002380Y-134599285D01*
X129430952Y-133599285D02*
X129383333Y-133694523D01*
X129335714Y-133742142D01*
X129240476Y-133789761D01*
X129192857Y-133789761D01*
X129097619Y-133742142D01*
X129050000Y-133694523D01*
X129002380Y-133599285D01*
X129002380Y-133408809D01*
X129050000Y-133313571D01*
X129097619Y-133265952D01*
X129192857Y-133218333D01*
X129240476Y-133218333D01*
X129335714Y-133265952D01*
X129383333Y-133313571D01*
X129430952Y-133408809D01*
X129430952Y-133599285D01*
X129478571Y-133694523D01*
X129526190Y-133742142D01*
X129621428Y-133789761D01*
X129811904Y-133789761D01*
X129907142Y-133742142D01*
X129954761Y-133694523D01*
X130002380Y-133599285D01*
X130002380Y-133408809D01*
X129954761Y-133313571D01*
X129907142Y-133265952D01*
X129811904Y-133218333D01*
X129621428Y-133218333D01*
X129526190Y-133265952D01*
X129478571Y-133313571D01*
X129430952Y-133408809D01*
X156551666Y-140502380D02*
X156551666Y-141216666D01*
X156504047Y-141359523D01*
X156408809Y-141454761D01*
X156265952Y-141502380D01*
X156170714Y-141502380D01*
X157075476Y-141502380D02*
X157265952Y-141502380D01*
X157361190Y-141454761D01*
X157408809Y-141407142D01*
X157504047Y-141264285D01*
X157551666Y-141073809D01*
X157551666Y-140692857D01*
X157504047Y-140597619D01*
X157456428Y-140550000D01*
X157361190Y-140502380D01*
X157170714Y-140502380D01*
X157075476Y-140550000D01*
X157027857Y-140597619D01*
X156980238Y-140692857D01*
X156980238Y-140930952D01*
X157027857Y-141026190D01*
X157075476Y-141073809D01*
X157170714Y-141121428D01*
X157361190Y-141121428D01*
X157456428Y-141073809D01*
X157504047Y-141026190D01*
X157551666Y-140930952D01*
X156075476Y-148252380D02*
X156075476Y-148966666D01*
X156027857Y-149109523D01*
X155932619Y-149204761D01*
X155789761Y-149252380D01*
X155694523Y-149252380D01*
X157075476Y-149252380D02*
X156504047Y-149252380D01*
X156789761Y-149252380D02*
X156789761Y-148252380D01*
X156694523Y-148395238D01*
X156599285Y-148490476D01*
X156504047Y-148538095D01*
X157694523Y-148252380D02*
X157789761Y-148252380D01*
X157885000Y-148300000D01*
X157932619Y-148347619D01*
X157980238Y-148442857D01*
X158027857Y-148633333D01*
X158027857Y-148871428D01*
X157980238Y-149061904D01*
X157932619Y-149157142D01*
X157885000Y-149204761D01*
X157789761Y-149252380D01*
X157694523Y-149252380D01*
X157599285Y-149204761D01*
X157551666Y-149157142D01*
X157504047Y-149061904D01*
X157456428Y-148871428D01*
X157456428Y-148633333D01*
X157504047Y-148442857D01*
X157551666Y-148347619D01*
X157599285Y-148300000D01*
X157694523Y-148252380D01*
X153495476Y-155952380D02*
X153495476Y-156666666D01*
X153447857Y-156809523D01*
X153352619Y-156904761D01*
X153209761Y-156952380D01*
X153114523Y-156952380D01*
X154495476Y-156952380D02*
X153924047Y-156952380D01*
X154209761Y-156952380D02*
X154209761Y-155952380D01*
X154114523Y-156095238D01*
X154019285Y-156190476D01*
X153924047Y-156238095D01*
X155447857Y-156952380D02*
X154876428Y-156952380D01*
X155162142Y-156952380D02*
X155162142Y-155952380D01*
X155066904Y-156095238D01*
X154971666Y-156190476D01*
X154876428Y-156238095D01*
X156190476Y-163952380D02*
X156190476Y-164666666D01*
X156142857Y-164809523D01*
X156047619Y-164904761D01*
X155904761Y-164952380D01*
X155809523Y-164952380D01*
X157190476Y-164952380D02*
X156619047Y-164952380D01*
X156904761Y-164952380D02*
X156904761Y-163952380D01*
X156809523Y-164095238D01*
X156714285Y-164190476D01*
X156619047Y-164238095D01*
X157571428Y-164047619D02*
X157619047Y-164000000D01*
X157714285Y-163952380D01*
X157952380Y-163952380D01*
X158047619Y-164000000D01*
X158095238Y-164047619D01*
X158142857Y-164142857D01*
X158142857Y-164238095D01*
X158095238Y-164380952D01*
X157523809Y-164952380D01*
X158142857Y-164952380D01*
X128952380Y-147833333D02*
X129666666Y-147833333D01*
X129809523Y-147880952D01*
X129904761Y-147976190D01*
X129952380Y-148119047D01*
X129952380Y-148214285D01*
X129047619Y-147404761D02*
X129000000Y-147357142D01*
X128952380Y-147261904D01*
X128952380Y-147023809D01*
X129000000Y-146928571D01*
X129047619Y-146880952D01*
X129142857Y-146833333D01*
X129238095Y-146833333D01*
X129380952Y-146880952D01*
X129952380Y-147452380D01*
X129952380Y-146833333D01*
X129002380Y-119809523D02*
X129716666Y-119809523D01*
X129859523Y-119857142D01*
X129954761Y-119952380D01*
X130002380Y-120095238D01*
X130002380Y-120190476D01*
X130002380Y-118809523D02*
X130002380Y-119380952D01*
X130002380Y-119095238D02*
X129002380Y-119095238D01*
X129145238Y-119190476D01*
X129240476Y-119285714D01*
X129288095Y-119380952D01*
X129002380Y-118476190D02*
X129002380Y-117857142D01*
X129383333Y-118190476D01*
X129383333Y-118047619D01*
X129430952Y-117952380D01*
X129478571Y-117904761D01*
X129573809Y-117857142D01*
X129811904Y-117857142D01*
X129907142Y-117904761D01*
X129954761Y-117952380D01*
X130002380Y-118047619D01*
X130002380Y-118333333D01*
X129954761Y-118428571D01*
X129907142Y-118476190D01*
X140833333Y-102857142D02*
X140785714Y-102904761D01*
X140642857Y-102952380D01*
X140547619Y-102952380D01*
X140404761Y-102904761D01*
X140309523Y-102809523D01*
X140261904Y-102714285D01*
X140214285Y-102523809D01*
X140214285Y-102380952D01*
X140261904Y-102190476D01*
X140309523Y-102095238D01*
X140404761Y-102000000D01*
X140547619Y-101952380D01*
X140642857Y-101952380D01*
X140785714Y-102000000D01*
X140833333Y-102047619D01*
X141166666Y-101952380D02*
X141833333Y-101952380D01*
X141404761Y-102952380D01*
X134761904Y-100952380D02*
X134761904Y-99952380D01*
X135000000Y-99952380D01*
X135142857Y-100000000D01*
X135238095Y-100095238D01*
X135285714Y-100190476D01*
X135333333Y-100380952D01*
X135333333Y-100523809D01*
X135285714Y-100714285D01*
X135238095Y-100809523D01*
X135142857Y-100904761D01*
X135000000Y-100952380D01*
X134761904Y-100952380D01*
X136190476Y-100285714D02*
X136190476Y-100952380D01*
X135952380Y-99904761D02*
X135714285Y-100619047D01*
X136333333Y-100619047D01*
X129761904Y-108452380D02*
X129761904Y-107452380D01*
X130000000Y-107452380D01*
X130142857Y-107500000D01*
X130238095Y-107595238D01*
X130285714Y-107690476D01*
X130333333Y-107880952D01*
X130333333Y-108023809D01*
X130285714Y-108214285D01*
X130238095Y-108309523D01*
X130142857Y-108404761D01*
X130000000Y-108452380D01*
X129761904Y-108452380D01*
X131238095Y-107452380D02*
X130761904Y-107452380D01*
X130714285Y-107928571D01*
X130761904Y-107880952D01*
X130857142Y-107833333D01*
X131095238Y-107833333D01*
X131190476Y-107880952D01*
X131238095Y-107928571D01*
X131285714Y-108023809D01*
X131285714Y-108261904D01*
X131238095Y-108357142D01*
X131190476Y-108404761D01*
X131095238Y-108452380D01*
X130857142Y-108452380D01*
X130761904Y-108404761D01*
X130714285Y-108357142D01*
X136833333Y-111952380D02*
X136500000Y-111476190D01*
X136261904Y-111952380D02*
X136261904Y-110952380D01*
X136642857Y-110952380D01*
X136738095Y-111000000D01*
X136785714Y-111047619D01*
X136833333Y-111142857D01*
X136833333Y-111285714D01*
X136785714Y-111380952D01*
X136738095Y-111428571D01*
X136642857Y-111476190D01*
X136261904Y-111476190D01*
X137738095Y-110952380D02*
X137261904Y-110952380D01*
X137214285Y-111428571D01*
X137261904Y-111380952D01*
X137357142Y-111333333D01*
X137595238Y-111333333D01*
X137690476Y-111380952D01*
X137738095Y-111428571D01*
X137785714Y-111523809D01*
X137785714Y-111761904D01*
X137738095Y-111857142D01*
X137690476Y-111904761D01*
X137595238Y-111952380D01*
X137357142Y-111952380D01*
X137261904Y-111904761D01*
X137214285Y-111857142D01*
X133333333Y-114602380D02*
X133000000Y-114126190D01*
X132761904Y-114602380D02*
X132761904Y-113602380D01*
X133142857Y-113602380D01*
X133238095Y-113650000D01*
X133285714Y-113697619D01*
X133333333Y-113792857D01*
X133333333Y-113935714D01*
X133285714Y-114030952D01*
X133238095Y-114078571D01*
X133142857Y-114126190D01*
X132761904Y-114126190D01*
X134190476Y-113602380D02*
X134000000Y-113602380D01*
X133904761Y-113650000D01*
X133857142Y-113697619D01*
X133761904Y-113840476D01*
X133714285Y-114030952D01*
X133714285Y-114411904D01*
X133761904Y-114507142D01*
X133809523Y-114554761D01*
X133904761Y-114602380D01*
X134095238Y-114602380D01*
X134190476Y-114554761D01*
X134238095Y-114507142D01*
X134285714Y-114411904D01*
X134285714Y-114173809D01*
X134238095Y-114078571D01*
X134190476Y-114030952D01*
X134095238Y-113983333D01*
X133904761Y-113983333D01*
X133809523Y-114030952D01*
X133761904Y-114078571D01*
X133714285Y-114173809D01*
X130333333Y-114452380D02*
X130000000Y-113976190D01*
X129761904Y-114452380D02*
X129761904Y-113452380D01*
X130142857Y-113452380D01*
X130238095Y-113500000D01*
X130285714Y-113547619D01*
X130333333Y-113642857D01*
X130333333Y-113785714D01*
X130285714Y-113880952D01*
X130238095Y-113928571D01*
X130142857Y-113976190D01*
X129761904Y-113976190D01*
X130666666Y-113452380D02*
X131333333Y-113452380D01*
X130904761Y-114452380D01*
X129333333Y-93452380D02*
X129000000Y-92976190D01*
X128761904Y-93452380D02*
X128761904Y-92452380D01*
X129142857Y-92452380D01*
X129238095Y-92500000D01*
X129285714Y-92547619D01*
X129333333Y-92642857D01*
X129333333Y-92785714D01*
X129285714Y-92880952D01*
X129238095Y-92928571D01*
X129142857Y-92976190D01*
X128761904Y-92976190D01*
X129904761Y-92880952D02*
X129809523Y-92833333D01*
X129761904Y-92785714D01*
X129714285Y-92690476D01*
X129714285Y-92642857D01*
X129761904Y-92547619D01*
X129809523Y-92500000D01*
X129904761Y-92452380D01*
X130095238Y-92452380D01*
X130190476Y-92500000D01*
X130238095Y-92547619D01*
X130285714Y-92642857D01*
X130285714Y-92690476D01*
X130238095Y-92785714D01*
X130190476Y-92833333D01*
X130095238Y-92880952D01*
X129904761Y-92880952D01*
X129809523Y-92928571D01*
X129761904Y-92976190D01*
X129714285Y-93071428D01*
X129714285Y-93261904D01*
X129761904Y-93357142D01*
X129809523Y-93404761D01*
X129904761Y-93452380D01*
X130095238Y-93452380D01*
X130190476Y-93404761D01*
X130238095Y-93357142D01*
X130285714Y-93261904D01*
X130285714Y-93071428D01*
X130238095Y-92976190D01*
X130190476Y-92928571D01*
X130095238Y-92880952D01*
X129333333Y-95952380D02*
X129000000Y-95476190D01*
X128761904Y-95952380D02*
X128761904Y-94952380D01*
X129142857Y-94952380D01*
X129238095Y-95000000D01*
X129285714Y-95047619D01*
X129333333Y-95142857D01*
X129333333Y-95285714D01*
X129285714Y-95380952D01*
X129238095Y-95428571D01*
X129142857Y-95476190D01*
X128761904Y-95476190D01*
X129809523Y-95952380D02*
X130000000Y-95952380D01*
X130095238Y-95904761D01*
X130142857Y-95857142D01*
X130238095Y-95714285D01*
X130285714Y-95523809D01*
X130285714Y-95142857D01*
X130238095Y-95047619D01*
X130190476Y-95000000D01*
X130095238Y-94952380D01*
X129904761Y-94952380D01*
X129809523Y-95000000D01*
X129761904Y-95047619D01*
X129714285Y-95142857D01*
X129714285Y-95380952D01*
X129761904Y-95476190D01*
X129809523Y-95523809D01*
X129904761Y-95571428D01*
X130095238Y-95571428D01*
X130190476Y-95523809D01*
X130238095Y-95476190D01*
X130285714Y-95380952D01*
X137857142Y-97452380D02*
X137523809Y-96976190D01*
X137285714Y-97452380D02*
X137285714Y-96452380D01*
X137666666Y-96452380D01*
X137761904Y-96500000D01*
X137809523Y-96547619D01*
X137857142Y-96642857D01*
X137857142Y-96785714D01*
X137809523Y-96880952D01*
X137761904Y-96928571D01*
X137666666Y-96976190D01*
X137285714Y-96976190D01*
X138809523Y-97452380D02*
X138238095Y-97452380D01*
X138523809Y-97452380D02*
X138523809Y-96452380D01*
X138428571Y-96595238D01*
X138333333Y-96690476D01*
X138238095Y-96738095D01*
X139428571Y-96452380D02*
X139523809Y-96452380D01*
X139619047Y-96500000D01*
X139666666Y-96547619D01*
X139714285Y-96642857D01*
X139761904Y-96833333D01*
X139761904Y-97071428D01*
X139714285Y-97261904D01*
X139666666Y-97357142D01*
X139619047Y-97404761D01*
X139523809Y-97452380D01*
X139428571Y-97452380D01*
X139333333Y-97404761D01*
X139285714Y-97357142D01*
X139238095Y-97261904D01*
X139190476Y-97071428D01*
X139190476Y-96833333D01*
X139238095Y-96642857D01*
X139285714Y-96547619D01*
X139333333Y-96500000D01*
X139428571Y-96452380D01*
X132738095Y-104452380D02*
X132738095Y-105261904D01*
X132785714Y-105357142D01*
X132833333Y-105404761D01*
X132928571Y-105452380D01*
X133119047Y-105452380D01*
X133214285Y-105404761D01*
X133261904Y-105357142D01*
X133309523Y-105261904D01*
X133309523Y-104452380D01*
X133738095Y-104547619D02*
X133785714Y-104500000D01*
X133880952Y-104452380D01*
X134119047Y-104452380D01*
X134214285Y-104500000D01*
X134261904Y-104547619D01*
X134309523Y-104642857D01*
X134309523Y-104738095D01*
X134261904Y-104880952D01*
X133690476Y-105452380D01*
X134309523Y-105452380D01*
X124190476Y-95452380D02*
X124190476Y-96166666D01*
X124142857Y-96309523D01*
X124047619Y-96404761D01*
X123904761Y-96452380D01*
X123809523Y-96452380D01*
X125190476Y-96452380D02*
X124619047Y-96452380D01*
X124904761Y-96452380D02*
X124904761Y-95452380D01*
X124809523Y-95595238D01*
X124714285Y-95690476D01*
X124619047Y-95738095D01*
X126095238Y-95452380D02*
X125619047Y-95452380D01*
X125571428Y-95928571D01*
X125619047Y-95880952D01*
X125714285Y-95833333D01*
X125952380Y-95833333D01*
X126047619Y-95880952D01*
X126095238Y-95928571D01*
X126142857Y-96023809D01*
X126142857Y-96261904D01*
X126095238Y-96357142D01*
X126047619Y-96404761D01*
X125952380Y-96452380D01*
X125714285Y-96452380D01*
X125619047Y-96404761D01*
X125571428Y-96357142D01*
X128380476Y-172952380D02*
X128380476Y-173666666D01*
X128332857Y-173809523D01*
X128237619Y-173904761D01*
X128094761Y-173952380D01*
X127999523Y-173952380D01*
X129380476Y-173952380D02*
X128809047Y-173952380D01*
X129094761Y-173952380D02*
X129094761Y-172952380D01*
X128999523Y-173095238D01*
X128904285Y-173190476D01*
X128809047Y-173238095D01*
X130237619Y-172952380D02*
X130047142Y-172952380D01*
X129951904Y-173000000D01*
X129904285Y-173047619D01*
X129809047Y-173190476D01*
X129761428Y-173380952D01*
X129761428Y-173761904D01*
X129809047Y-173857142D01*
X129856666Y-173904761D01*
X129951904Y-173952380D01*
X130142380Y-173952380D01*
X130237619Y-173904761D01*
X130285238Y-173857142D01*
X130332857Y-173761904D01*
X130332857Y-173523809D01*
X130285238Y-173428571D01*
X130237619Y-173380952D01*
X130142380Y-173333333D01*
X129951904Y-173333333D01*
X129856666Y-173380952D01*
X129809047Y-173428571D01*
X129761428Y-173523809D01*
X136102380Y-153142857D02*
X135626190Y-153476190D01*
X136102380Y-153714285D02*
X135102380Y-153714285D01*
X135102380Y-153333333D01*
X135150000Y-153238095D01*
X135197619Y-153190476D01*
X135292857Y-153142857D01*
X135435714Y-153142857D01*
X135530952Y-153190476D01*
X135578571Y-153238095D01*
X135626190Y-153333333D01*
X135626190Y-153714285D01*
X136102380Y-152190476D02*
X136102380Y-152761904D01*
X136102380Y-152476190D02*
X135102380Y-152476190D01*
X135245238Y-152571428D01*
X135340476Y-152666666D01*
X135388095Y-152761904D01*
X135197619Y-151809523D02*
X135150000Y-151761904D01*
X135102380Y-151666666D01*
X135102380Y-151428571D01*
X135150000Y-151333333D01*
X135197619Y-151285714D01*
X135292857Y-151238095D01*
X135388095Y-151238095D01*
X135530952Y-151285714D01*
X136102380Y-151857142D01*
X136102380Y-151238095D01*
X131602380Y-154142857D02*
X131126190Y-154476190D01*
X131602380Y-154714285D02*
X130602380Y-154714285D01*
X130602380Y-154333333D01*
X130650000Y-154238095D01*
X130697619Y-154190476D01*
X130792857Y-154142857D01*
X130935714Y-154142857D01*
X131030952Y-154190476D01*
X131078571Y-154238095D01*
X131126190Y-154333333D01*
X131126190Y-154714285D01*
X131602380Y-153190476D02*
X131602380Y-153761904D01*
X131602380Y-153476190D02*
X130602380Y-153476190D01*
X130745238Y-153571428D01*
X130840476Y-153666666D01*
X130888095Y-153761904D01*
X130602380Y-152857142D02*
X130602380Y-152238095D01*
X130983333Y-152571428D01*
X130983333Y-152428571D01*
X131030952Y-152333333D01*
X131078571Y-152285714D01*
X131173809Y-152238095D01*
X131411904Y-152238095D01*
X131507142Y-152285714D01*
X131554761Y-152333333D01*
X131602380Y-152428571D01*
X131602380Y-152714285D01*
X131554761Y-152809523D01*
X131507142Y-152857142D01*
D14*
G36*
X143265043Y-96046797D02*
G01*
X143286999Y-96058533D01*
X143310824Y-96065760D01*
X143335600Y-96068200D01*
X143361772Y-96068200D01*
X143366643Y-96072197D01*
X143388599Y-96083933D01*
X143412424Y-96091160D01*
X143437200Y-96093600D01*
X143437972Y-96093600D01*
X143442843Y-96097597D01*
X143464799Y-96109333D01*
X143484143Y-96115201D01*
X143493643Y-96122997D01*
X143515599Y-96134733D01*
X143539424Y-96141960D01*
X143564200Y-96144400D01*
X143564972Y-96144400D01*
X143569843Y-96148397D01*
X143591799Y-96160133D01*
X143611143Y-96166001D01*
X143615348Y-96169452D01*
X143626797Y-96183403D01*
X143646043Y-96199197D01*
X143667999Y-96210933D01*
X143687343Y-96216801D01*
X143696843Y-96224597D01*
X143718799Y-96236333D01*
X143738143Y-96242201D01*
X143742348Y-96245652D01*
X143753797Y-96259603D01*
X143773043Y-96275397D01*
X143794999Y-96287133D01*
X143814343Y-96293001D01*
X143818548Y-96296452D01*
X143829997Y-96310403D01*
X143843948Y-96321852D01*
X143855397Y-96335803D01*
X143874643Y-96351597D01*
X143896599Y-96363333D01*
X143915943Y-96369201D01*
X143920148Y-96372652D01*
X143931597Y-96386603D01*
X143945548Y-96398052D01*
X143956997Y-96412003D01*
X143976243Y-96427797D01*
X143998199Y-96439533D01*
X144017543Y-96445401D01*
X144021748Y-96448852D01*
X144033197Y-96462803D01*
X144047148Y-96474252D01*
X144058597Y-96488203D01*
X144072548Y-96499652D01*
X144083997Y-96513603D01*
X144097948Y-96525052D01*
X144109397Y-96539003D01*
X144123348Y-96550452D01*
X144134797Y-96564403D01*
X144148748Y-96575852D01*
X144160197Y-96589803D01*
X144179443Y-96605597D01*
X144201399Y-96617333D01*
X144225224Y-96624560D01*
X144250000Y-96627000D01*
X144300800Y-96627000D01*
X144325576Y-96624560D01*
X144349401Y-96617333D01*
X144371357Y-96605597D01*
X144390603Y-96589803D01*
X144402052Y-96575852D01*
X144416003Y-96564403D01*
X144427452Y-96550452D01*
X144441403Y-96539003D01*
X144452852Y-96525052D01*
X144466803Y-96513603D01*
X144478252Y-96499652D01*
X144492203Y-96488203D01*
X144503652Y-96474252D01*
X144517603Y-96462803D01*
X144529052Y-96448852D01*
X144533257Y-96445401D01*
X144552601Y-96439533D01*
X144574557Y-96427797D01*
X144593803Y-96412003D01*
X144605252Y-96398052D01*
X144619203Y-96386603D01*
X144630652Y-96372652D01*
X144644603Y-96361203D01*
X144656052Y-96347252D01*
X144660257Y-96343801D01*
X144679601Y-96337933D01*
X144701557Y-96326197D01*
X144720803Y-96310403D01*
X144732252Y-96296452D01*
X144736457Y-96293001D01*
X144755801Y-96287133D01*
X144777757Y-96275397D01*
X144797003Y-96259603D01*
X144808452Y-96245652D01*
X144812657Y-96242201D01*
X144832001Y-96236333D01*
X144853957Y-96224597D01*
X144873203Y-96208803D01*
X144884652Y-96194852D01*
X144888857Y-96191401D01*
X144908201Y-96185533D01*
X144930157Y-96173797D01*
X144939657Y-96166001D01*
X144959001Y-96160133D01*
X144980957Y-96148397D01*
X144985828Y-96144400D01*
X144986600Y-96144400D01*
X145011376Y-96141960D01*
X145035201Y-96134733D01*
X145057157Y-96122997D01*
X145066657Y-96115201D01*
X145086001Y-96109333D01*
X145107957Y-96097597D01*
X145112828Y-96093600D01*
X145113600Y-96093600D01*
X145138376Y-96091160D01*
X145162201Y-96083933D01*
X145184157Y-96072197D01*
X145189028Y-96068200D01*
X145215200Y-96068200D01*
X145239976Y-96065760D01*
X145263801Y-96058533D01*
X145285757Y-96046797D01*
X145290628Y-96042800D01*
X145647772Y-96042800D01*
X145652643Y-96046797D01*
X145674599Y-96058533D01*
X145698424Y-96065760D01*
X145723200Y-96068200D01*
X145774772Y-96068200D01*
X145779643Y-96072197D01*
X145801599Y-96083933D01*
X145825424Y-96091160D01*
X145850200Y-96093600D01*
X145850972Y-96093600D01*
X145855843Y-96097597D01*
X145877799Y-96109333D01*
X145901624Y-96116560D01*
X145926400Y-96119000D01*
X145927172Y-96119000D01*
X145932043Y-96122997D01*
X145953999Y-96134733D01*
X145973343Y-96140601D01*
X145982843Y-96148397D01*
X146004799Y-96160133D01*
X146024143Y-96166001D01*
X146033643Y-96173797D01*
X146055599Y-96185533D01*
X146074943Y-96191401D01*
X146084443Y-96199197D01*
X146106399Y-96210933D01*
X146125743Y-96216801D01*
X146135243Y-96224597D01*
X146157199Y-96236333D01*
X146176543Y-96242201D01*
X146180748Y-96245652D01*
X146192197Y-96259603D01*
X146206148Y-96271052D01*
X146217597Y-96285003D01*
X146231548Y-96296452D01*
X146242997Y-96310403D01*
X146256948Y-96321852D01*
X146268397Y-96335803D01*
X146287643Y-96351597D01*
X146297913Y-96357087D01*
X146303403Y-96367357D01*
X146319197Y-96386603D01*
X146333148Y-96398052D01*
X146344597Y-96412003D01*
X146358548Y-96423452D01*
X146369997Y-96437403D01*
X146383948Y-96448852D01*
X146387399Y-96453057D01*
X146393267Y-96472401D01*
X146405003Y-96494357D01*
X146420797Y-96513603D01*
X146434748Y-96525052D01*
X146438199Y-96529257D01*
X146444067Y-96548601D01*
X146455803Y-96570557D01*
X146463599Y-96580057D01*
X146469467Y-96599401D01*
X146481203Y-96621357D01*
X146488999Y-96630857D01*
X146494867Y-96650201D01*
X146506603Y-96672157D01*
X146514399Y-96681657D01*
X146520267Y-96701001D01*
X146532003Y-96722957D01*
X146536000Y-96727828D01*
X146536000Y-96728600D01*
X146538440Y-96753376D01*
X146545667Y-96777201D01*
X146557403Y-96799157D01*
X146561400Y-96804028D01*
X146561400Y-96855600D01*
X146563840Y-96880376D01*
X146571067Y-96904201D01*
X146582803Y-96926157D01*
X146586800Y-96931028D01*
X146586800Y-97033400D01*
X146589240Y-97058176D01*
X146596467Y-97082001D01*
X146608203Y-97103957D01*
X146612200Y-97108828D01*
X146612200Y-97237372D01*
X146608203Y-97242243D01*
X146596467Y-97264199D01*
X146589240Y-97288024D01*
X146586800Y-97312800D01*
X146586800Y-97389772D01*
X146582803Y-97394643D01*
X146571067Y-97416599D01*
X146563840Y-97440424D01*
X146561400Y-97465200D01*
X146561400Y-97491372D01*
X146557403Y-97496243D01*
X146545667Y-97518199D01*
X146538440Y-97542024D01*
X146536000Y-97566800D01*
X146536000Y-97567572D01*
X146532003Y-97572443D01*
X146520267Y-97594399D01*
X146513040Y-97618224D01*
X146510600Y-97643000D01*
X146510600Y-97643772D01*
X146506603Y-97648643D01*
X146494867Y-97670599D01*
X146488999Y-97689943D01*
X146481203Y-97699443D01*
X146469467Y-97721399D01*
X146463599Y-97740743D01*
X146460148Y-97744948D01*
X146446197Y-97756397D01*
X146430403Y-97775643D01*
X146418667Y-97797599D01*
X146412799Y-97816943D01*
X146405003Y-97826443D01*
X146393267Y-97848399D01*
X146387399Y-97867743D01*
X146379603Y-97877243D01*
X146367867Y-97899199D01*
X146361999Y-97918543D01*
X146358548Y-97922748D01*
X146344597Y-97934197D01*
X146333148Y-97948148D01*
X146319197Y-97959597D01*
X146303403Y-97978843D01*
X146291667Y-98000799D01*
X146285799Y-98020143D01*
X146282348Y-98024348D01*
X146268397Y-98035797D01*
X146256948Y-98049748D01*
X146242997Y-98061197D01*
X146227203Y-98080443D01*
X146215467Y-98102399D01*
X146209599Y-98121743D01*
X146206148Y-98125948D01*
X146192197Y-98137397D01*
X146180748Y-98151348D01*
X146166797Y-98162797D01*
X146155348Y-98176748D01*
X146141397Y-98188197D01*
X146129948Y-98202148D01*
X146115997Y-98213597D01*
X146104548Y-98227548D01*
X146090597Y-98238997D01*
X146079148Y-98252948D01*
X146065197Y-98264397D01*
X146049403Y-98283643D01*
X146037667Y-98305599D01*
X146031799Y-98324943D01*
X146028348Y-98329148D01*
X146024143Y-98332599D01*
X146004799Y-98338467D01*
X145982843Y-98350203D01*
X145963597Y-98365997D01*
X145952148Y-98379948D01*
X145938197Y-98391397D01*
X145926748Y-98405348D01*
X145912797Y-98416797D01*
X145901348Y-98430748D01*
X145887397Y-98442197D01*
X145875948Y-98456148D01*
X145861997Y-98467597D01*
X145850548Y-98481548D01*
X145836597Y-98492997D01*
X145825148Y-98506948D01*
X145811197Y-98518397D01*
X145799748Y-98532348D01*
X145785797Y-98543797D01*
X145774348Y-98557748D01*
X145760397Y-98569197D01*
X145748948Y-98583148D01*
X145734997Y-98594597D01*
X145723548Y-98608548D01*
X145709597Y-98619997D01*
X145698148Y-98633948D01*
X145684197Y-98645397D01*
X145672748Y-98659348D01*
X145658797Y-98670797D01*
X145647348Y-98684748D01*
X145633397Y-98696197D01*
X145621948Y-98710148D01*
X145607997Y-98721597D01*
X145596548Y-98735548D01*
X145582597Y-98746997D01*
X145571148Y-98760948D01*
X145557197Y-98772397D01*
X145545748Y-98786348D01*
X145531797Y-98797797D01*
X145520348Y-98811748D01*
X145506397Y-98823197D01*
X145494948Y-98837148D01*
X145480997Y-98848597D01*
X145469548Y-98862548D01*
X145455597Y-98873997D01*
X145444148Y-98887948D01*
X145430197Y-98899397D01*
X145418748Y-98913348D01*
X145404797Y-98924797D01*
X145393348Y-98938748D01*
X145379397Y-98950197D01*
X145367948Y-98964148D01*
X145363743Y-98967599D01*
X145344399Y-98973467D01*
X145322443Y-98985203D01*
X145303197Y-99000997D01*
X145291748Y-99014948D01*
X145277797Y-99026397D01*
X145266348Y-99040348D01*
X145252397Y-99051797D01*
X145240948Y-99065748D01*
X145226997Y-99077197D01*
X145215548Y-99091148D01*
X145201597Y-99102597D01*
X145190148Y-99116548D01*
X145176197Y-99127997D01*
X145164748Y-99141948D01*
X145150797Y-99153397D01*
X145139348Y-99167348D01*
X145125397Y-99178797D01*
X145113948Y-99192748D01*
X145099997Y-99204197D01*
X145088548Y-99218148D01*
X145074597Y-99229597D01*
X145063148Y-99243548D01*
X145049197Y-99254997D01*
X145037748Y-99268948D01*
X145023797Y-99280397D01*
X145012348Y-99294348D01*
X144998397Y-99305797D01*
X144986948Y-99319748D01*
X144972997Y-99331197D01*
X144961548Y-99345148D01*
X144947597Y-99356597D01*
X144936148Y-99370548D01*
X144922197Y-99381997D01*
X144910748Y-99395948D01*
X144896797Y-99407397D01*
X144885348Y-99421348D01*
X144871397Y-99432797D01*
X144859948Y-99446748D01*
X144845997Y-99458197D01*
X144834548Y-99472148D01*
X144820597Y-99483597D01*
X144809148Y-99497548D01*
X144795197Y-99508997D01*
X144783748Y-99522948D01*
X144769797Y-99534397D01*
X144758348Y-99548348D01*
X144744397Y-99559797D01*
X144732948Y-99573748D01*
X144718997Y-99585197D01*
X144707548Y-99599148D01*
X144693597Y-99610597D01*
X144682148Y-99624548D01*
X144677943Y-99627999D01*
X144658599Y-99633867D01*
X144636643Y-99645603D01*
X144617397Y-99661397D01*
X144605948Y-99675348D01*
X144591997Y-99686797D01*
X144580548Y-99700748D01*
X144566597Y-99712197D01*
X144555148Y-99726148D01*
X144541197Y-99737597D01*
X144529748Y-99751548D01*
X144515797Y-99762997D01*
X144504348Y-99776948D01*
X144490397Y-99788397D01*
X144478948Y-99802348D01*
X144464997Y-99813797D01*
X144453548Y-99827748D01*
X144439597Y-99839197D01*
X144428148Y-99853148D01*
X144414197Y-99864597D01*
X144402748Y-99878548D01*
X144388797Y-99889997D01*
X144377348Y-99903948D01*
X144363397Y-99915397D01*
X144351948Y-99929348D01*
X144337997Y-99940797D01*
X144326548Y-99954748D01*
X144312597Y-99966197D01*
X144301148Y-99980148D01*
X144296943Y-99983599D01*
X144277599Y-99989467D01*
X144275400Y-99990642D01*
X144273201Y-99989467D01*
X144253857Y-99983599D01*
X144249652Y-99980148D01*
X144238203Y-99966197D01*
X144224252Y-99954748D01*
X144212803Y-99940797D01*
X144198852Y-99929348D01*
X144187403Y-99915397D01*
X144173452Y-99903948D01*
X144162003Y-99889997D01*
X144148052Y-99878548D01*
X144136603Y-99864597D01*
X144122652Y-99853148D01*
X144111203Y-99839197D01*
X144097252Y-99827748D01*
X144085803Y-99813797D01*
X144071852Y-99802348D01*
X144060403Y-99788397D01*
X144046452Y-99776948D01*
X144035003Y-99762997D01*
X144021052Y-99751548D01*
X144009603Y-99737597D01*
X143995652Y-99726148D01*
X143984203Y-99712197D01*
X143970252Y-99700748D01*
X143958803Y-99686797D01*
X143944852Y-99675348D01*
X143933403Y-99661397D01*
X143919452Y-99649948D01*
X143908003Y-99635997D01*
X143888757Y-99620203D01*
X143866801Y-99608467D01*
X143847457Y-99602599D01*
X143843252Y-99599148D01*
X143831803Y-99585197D01*
X143817852Y-99573748D01*
X143806403Y-99559797D01*
X143792452Y-99548348D01*
X143781003Y-99534397D01*
X143767052Y-99522948D01*
X143755603Y-99508997D01*
X143741652Y-99497548D01*
X143730203Y-99483597D01*
X143716252Y-99472148D01*
X143704803Y-99458197D01*
X143690852Y-99446748D01*
X143679403Y-99432797D01*
X143665452Y-99421348D01*
X143654003Y-99407397D01*
X143640052Y-99395948D01*
X143628603Y-99381997D01*
X143614652Y-99370548D01*
X143603203Y-99356597D01*
X143589252Y-99345148D01*
X143577803Y-99331197D01*
X143563852Y-99319748D01*
X143552403Y-99305797D01*
X143538452Y-99294348D01*
X143527003Y-99280397D01*
X143513052Y-99268948D01*
X143501603Y-99254997D01*
X143487652Y-99243548D01*
X143476203Y-99229597D01*
X143462252Y-99218148D01*
X143450803Y-99204197D01*
X143436852Y-99192748D01*
X143425403Y-99178797D01*
X143411452Y-99167348D01*
X143400003Y-99153397D01*
X143386052Y-99141948D01*
X143374603Y-99127997D01*
X143360652Y-99116548D01*
X143349203Y-99102597D01*
X143335252Y-99091148D01*
X143323803Y-99077197D01*
X143309852Y-99065748D01*
X143298403Y-99051797D01*
X143284452Y-99040348D01*
X143273003Y-99026397D01*
X143259052Y-99014948D01*
X143247603Y-99000997D01*
X143228357Y-98985203D01*
X143206401Y-98973467D01*
X143187057Y-98967599D01*
X143182852Y-98964148D01*
X143171403Y-98950197D01*
X143157452Y-98938748D01*
X143146003Y-98924797D01*
X143132052Y-98913348D01*
X143120603Y-98899397D01*
X143106652Y-98887948D01*
X143095203Y-98873997D01*
X143081252Y-98862548D01*
X143069803Y-98848597D01*
X143055852Y-98837148D01*
X143044403Y-98823197D01*
X143030452Y-98811748D01*
X143019003Y-98797797D01*
X143005052Y-98786348D01*
X142993603Y-98772397D01*
X142979652Y-98760948D01*
X142968203Y-98746997D01*
X142954252Y-98735548D01*
X142942803Y-98721597D01*
X142928852Y-98710148D01*
X142917403Y-98696197D01*
X142903452Y-98684748D01*
X142892003Y-98670797D01*
X142878052Y-98659348D01*
X142866603Y-98645397D01*
X142852652Y-98633948D01*
X142841203Y-98619997D01*
X142827252Y-98608548D01*
X142815803Y-98594597D01*
X142801852Y-98583148D01*
X142790403Y-98569197D01*
X142776452Y-98557748D01*
X142765003Y-98543797D01*
X142751052Y-98532348D01*
X142739603Y-98518397D01*
X142725652Y-98506948D01*
X142714203Y-98492997D01*
X142700252Y-98481548D01*
X142688803Y-98467597D01*
X142674852Y-98456148D01*
X142663403Y-98442197D01*
X142649452Y-98430748D01*
X142638003Y-98416797D01*
X142624052Y-98405348D01*
X142612603Y-98391397D01*
X142598652Y-98379948D01*
X142587203Y-98365997D01*
X142567957Y-98350203D01*
X142557687Y-98344713D01*
X142552197Y-98334443D01*
X142536403Y-98315197D01*
X142517157Y-98299403D01*
X142495201Y-98287667D01*
X142475857Y-98281799D01*
X142471652Y-98278348D01*
X142468201Y-98274143D01*
X142462333Y-98254799D01*
X142450597Y-98232843D01*
X142434803Y-98213597D01*
X142420852Y-98202148D01*
X142409403Y-98188197D01*
X142395452Y-98176748D01*
X142384003Y-98162797D01*
X142370052Y-98151348D01*
X142358603Y-98137397D01*
X142344652Y-98125948D01*
X142341201Y-98121743D01*
X142335333Y-98102399D01*
X142323597Y-98080443D01*
X142307803Y-98061197D01*
X142293852Y-98049748D01*
X142282403Y-98035797D01*
X142268452Y-98024348D01*
X142265001Y-98020143D01*
X142259133Y-98000799D01*
X142247397Y-97978843D01*
X142231603Y-97959597D01*
X142217652Y-97948148D01*
X142206203Y-97934197D01*
X142192252Y-97922748D01*
X142188801Y-97918543D01*
X142182933Y-97899199D01*
X142171197Y-97877243D01*
X142163401Y-97867743D01*
X142157533Y-97848399D01*
X142145797Y-97826443D01*
X142138001Y-97816943D01*
X142132133Y-97797599D01*
X142120397Y-97775643D01*
X142104603Y-97756397D01*
X142090652Y-97744948D01*
X142087201Y-97740743D01*
X142081333Y-97721399D01*
X142069597Y-97699443D01*
X142065600Y-97694572D01*
X142065600Y-97693800D01*
X142063160Y-97669024D01*
X142055933Y-97645199D01*
X142044197Y-97623243D01*
X142036401Y-97613743D01*
X142030533Y-97594399D01*
X142018797Y-97572443D01*
X142014800Y-97567572D01*
X142014800Y-97566800D01*
X142012360Y-97542024D01*
X142005133Y-97518199D01*
X141993397Y-97496243D01*
X141989400Y-97491372D01*
X141989400Y-97490600D01*
X141986960Y-97465824D01*
X141979733Y-97441999D01*
X141967997Y-97420043D01*
X141964000Y-97415172D01*
X141964000Y-97363600D01*
X141961560Y-97338824D01*
X141954333Y-97314999D01*
X141942597Y-97293043D01*
X141938600Y-97288172D01*
X141938600Y-97058028D01*
X141942597Y-97053157D01*
X141954333Y-97031201D01*
X141961560Y-97007376D01*
X141964000Y-96982600D01*
X141964000Y-96905628D01*
X141967997Y-96900757D01*
X141979733Y-96878801D01*
X141986960Y-96854976D01*
X141989400Y-96830200D01*
X141989400Y-96804028D01*
X141993397Y-96799157D01*
X142005133Y-96777201D01*
X142012360Y-96753376D01*
X142014800Y-96728600D01*
X142014800Y-96727828D01*
X142018797Y-96722957D01*
X142030533Y-96701001D01*
X142036401Y-96681657D01*
X142044197Y-96672157D01*
X142055933Y-96650201D01*
X142061801Y-96630857D01*
X142069597Y-96621357D01*
X142081333Y-96599401D01*
X142087201Y-96580057D01*
X142094997Y-96570557D01*
X142106733Y-96548601D01*
X142112601Y-96529257D01*
X142116052Y-96525052D01*
X142130003Y-96513603D01*
X142145797Y-96494357D01*
X142157533Y-96472401D01*
X142163401Y-96453057D01*
X142166852Y-96448852D01*
X142180803Y-96437403D01*
X142192252Y-96423452D01*
X142206203Y-96412003D01*
X142217652Y-96398052D01*
X142231603Y-96386603D01*
X142247397Y-96367357D01*
X142259133Y-96345401D01*
X142260871Y-96339671D01*
X142266601Y-96337933D01*
X142288557Y-96326197D01*
X142307803Y-96310403D01*
X142319252Y-96296452D01*
X142333203Y-96285003D01*
X142344652Y-96271052D01*
X142358603Y-96259603D01*
X142370052Y-96245652D01*
X142374257Y-96242201D01*
X142393601Y-96236333D01*
X142415557Y-96224597D01*
X142425057Y-96216801D01*
X142444401Y-96210933D01*
X142466357Y-96199197D01*
X142475857Y-96191401D01*
X142495201Y-96185533D01*
X142517157Y-96173797D01*
X142526657Y-96166001D01*
X142546001Y-96160133D01*
X142567957Y-96148397D01*
X142577457Y-96140601D01*
X142596801Y-96134733D01*
X142618757Y-96122997D01*
X142623628Y-96119000D01*
X142624400Y-96119000D01*
X142649176Y-96116560D01*
X142673001Y-96109333D01*
X142694957Y-96097597D01*
X142699828Y-96093600D01*
X142700600Y-96093600D01*
X142725376Y-96091160D01*
X142749201Y-96083933D01*
X142771157Y-96072197D01*
X142776028Y-96068200D01*
X142827600Y-96068200D01*
X142852376Y-96065760D01*
X142876201Y-96058533D01*
X142898157Y-96046797D01*
X142903028Y-96042800D01*
X143260172Y-96042800D01*
X143265043Y-96046797D01*
G37*
X143265043Y-96046797D02*
X143286999Y-96058533D01*
X143310824Y-96065760D01*
X143335600Y-96068200D01*
X143361772Y-96068200D01*
X143366643Y-96072197D01*
X143388599Y-96083933D01*
X143412424Y-96091160D01*
X143437200Y-96093600D01*
X143437972Y-96093600D01*
X143442843Y-96097597D01*
X143464799Y-96109333D01*
X143484143Y-96115201D01*
X143493643Y-96122997D01*
X143515599Y-96134733D01*
X143539424Y-96141960D01*
X143564200Y-96144400D01*
X143564972Y-96144400D01*
X143569843Y-96148397D01*
X143591799Y-96160133D01*
X143611143Y-96166001D01*
X143615348Y-96169452D01*
X143626797Y-96183403D01*
X143646043Y-96199197D01*
X143667999Y-96210933D01*
X143687343Y-96216801D01*
X143696843Y-96224597D01*
X143718799Y-96236333D01*
X143738143Y-96242201D01*
X143742348Y-96245652D01*
X143753797Y-96259603D01*
X143773043Y-96275397D01*
X143794999Y-96287133D01*
X143814343Y-96293001D01*
X143818548Y-96296452D01*
X143829997Y-96310403D01*
X143843948Y-96321852D01*
X143855397Y-96335803D01*
X143874643Y-96351597D01*
X143896599Y-96363333D01*
X143915943Y-96369201D01*
X143920148Y-96372652D01*
X143931597Y-96386603D01*
X143945548Y-96398052D01*
X143956997Y-96412003D01*
X143976243Y-96427797D01*
X143998199Y-96439533D01*
X144017543Y-96445401D01*
X144021748Y-96448852D01*
X144033197Y-96462803D01*
X144047148Y-96474252D01*
X144058597Y-96488203D01*
X144072548Y-96499652D01*
X144083997Y-96513603D01*
X144097948Y-96525052D01*
X144109397Y-96539003D01*
X144123348Y-96550452D01*
X144134797Y-96564403D01*
X144148748Y-96575852D01*
X144160197Y-96589803D01*
X144179443Y-96605597D01*
X144201399Y-96617333D01*
X144225224Y-96624560D01*
X144250000Y-96627000D01*
X144300800Y-96627000D01*
X144325576Y-96624560D01*
X144349401Y-96617333D01*
X144371357Y-96605597D01*
X144390603Y-96589803D01*
X144402052Y-96575852D01*
X144416003Y-96564403D01*
X144427452Y-96550452D01*
X144441403Y-96539003D01*
X144452852Y-96525052D01*
X144466803Y-96513603D01*
X144478252Y-96499652D01*
X144492203Y-96488203D01*
X144503652Y-96474252D01*
X144517603Y-96462803D01*
X144529052Y-96448852D01*
X144533257Y-96445401D01*
X144552601Y-96439533D01*
X144574557Y-96427797D01*
X144593803Y-96412003D01*
X144605252Y-96398052D01*
X144619203Y-96386603D01*
X144630652Y-96372652D01*
X144644603Y-96361203D01*
X144656052Y-96347252D01*
X144660257Y-96343801D01*
X144679601Y-96337933D01*
X144701557Y-96326197D01*
X144720803Y-96310403D01*
X144732252Y-96296452D01*
X144736457Y-96293001D01*
X144755801Y-96287133D01*
X144777757Y-96275397D01*
X144797003Y-96259603D01*
X144808452Y-96245652D01*
X144812657Y-96242201D01*
X144832001Y-96236333D01*
X144853957Y-96224597D01*
X144873203Y-96208803D01*
X144884652Y-96194852D01*
X144888857Y-96191401D01*
X144908201Y-96185533D01*
X144930157Y-96173797D01*
X144939657Y-96166001D01*
X144959001Y-96160133D01*
X144980957Y-96148397D01*
X144985828Y-96144400D01*
X144986600Y-96144400D01*
X145011376Y-96141960D01*
X145035201Y-96134733D01*
X145057157Y-96122997D01*
X145066657Y-96115201D01*
X145086001Y-96109333D01*
X145107957Y-96097597D01*
X145112828Y-96093600D01*
X145113600Y-96093600D01*
X145138376Y-96091160D01*
X145162201Y-96083933D01*
X145184157Y-96072197D01*
X145189028Y-96068200D01*
X145215200Y-96068200D01*
X145239976Y-96065760D01*
X145263801Y-96058533D01*
X145285757Y-96046797D01*
X145290628Y-96042800D01*
X145647772Y-96042800D01*
X145652643Y-96046797D01*
X145674599Y-96058533D01*
X145698424Y-96065760D01*
X145723200Y-96068200D01*
X145774772Y-96068200D01*
X145779643Y-96072197D01*
X145801599Y-96083933D01*
X145825424Y-96091160D01*
X145850200Y-96093600D01*
X145850972Y-96093600D01*
X145855843Y-96097597D01*
X145877799Y-96109333D01*
X145901624Y-96116560D01*
X145926400Y-96119000D01*
X145927172Y-96119000D01*
X145932043Y-96122997D01*
X145953999Y-96134733D01*
X145973343Y-96140601D01*
X145982843Y-96148397D01*
X146004799Y-96160133D01*
X146024143Y-96166001D01*
X146033643Y-96173797D01*
X146055599Y-96185533D01*
X146074943Y-96191401D01*
X146084443Y-96199197D01*
X146106399Y-96210933D01*
X146125743Y-96216801D01*
X146135243Y-96224597D01*
X146157199Y-96236333D01*
X146176543Y-96242201D01*
X146180748Y-96245652D01*
X146192197Y-96259603D01*
X146206148Y-96271052D01*
X146217597Y-96285003D01*
X146231548Y-96296452D01*
X146242997Y-96310403D01*
X146256948Y-96321852D01*
X146268397Y-96335803D01*
X146287643Y-96351597D01*
X146297913Y-96357087D01*
X146303403Y-96367357D01*
X146319197Y-96386603D01*
X146333148Y-96398052D01*
X146344597Y-96412003D01*
X146358548Y-96423452D01*
X146369997Y-96437403D01*
X146383948Y-96448852D01*
X146387399Y-96453057D01*
X146393267Y-96472401D01*
X146405003Y-96494357D01*
X146420797Y-96513603D01*
X146434748Y-96525052D01*
X146438199Y-96529257D01*
X146444067Y-96548601D01*
X146455803Y-96570557D01*
X146463599Y-96580057D01*
X146469467Y-96599401D01*
X146481203Y-96621357D01*
X146488999Y-96630857D01*
X146494867Y-96650201D01*
X146506603Y-96672157D01*
X146514399Y-96681657D01*
X146520267Y-96701001D01*
X146532003Y-96722957D01*
X146536000Y-96727828D01*
X146536000Y-96728600D01*
X146538440Y-96753376D01*
X146545667Y-96777201D01*
X146557403Y-96799157D01*
X146561400Y-96804028D01*
X146561400Y-96855600D01*
X146563840Y-96880376D01*
X146571067Y-96904201D01*
X146582803Y-96926157D01*
X146586800Y-96931028D01*
X146586800Y-97033400D01*
X146589240Y-97058176D01*
X146596467Y-97082001D01*
X146608203Y-97103957D01*
X146612200Y-97108828D01*
X146612200Y-97237372D01*
X146608203Y-97242243D01*
X146596467Y-97264199D01*
X146589240Y-97288024D01*
X146586800Y-97312800D01*
X146586800Y-97389772D01*
X146582803Y-97394643D01*
X146571067Y-97416599D01*
X146563840Y-97440424D01*
X146561400Y-97465200D01*
X146561400Y-97491372D01*
X146557403Y-97496243D01*
X146545667Y-97518199D01*
X146538440Y-97542024D01*
X146536000Y-97566800D01*
X146536000Y-97567572D01*
X146532003Y-97572443D01*
X146520267Y-97594399D01*
X146513040Y-97618224D01*
X146510600Y-97643000D01*
X146510600Y-97643772D01*
X146506603Y-97648643D01*
X146494867Y-97670599D01*
X146488999Y-97689943D01*
X146481203Y-97699443D01*
X146469467Y-97721399D01*
X146463599Y-97740743D01*
X146460148Y-97744948D01*
X146446197Y-97756397D01*
X146430403Y-97775643D01*
X146418667Y-97797599D01*
X146412799Y-97816943D01*
X146405003Y-97826443D01*
X146393267Y-97848399D01*
X146387399Y-97867743D01*
X146379603Y-97877243D01*
X146367867Y-97899199D01*
X146361999Y-97918543D01*
X146358548Y-97922748D01*
X146344597Y-97934197D01*
X146333148Y-97948148D01*
X146319197Y-97959597D01*
X146303403Y-97978843D01*
X146291667Y-98000799D01*
X146285799Y-98020143D01*
X146282348Y-98024348D01*
X146268397Y-98035797D01*
X146256948Y-98049748D01*
X146242997Y-98061197D01*
X146227203Y-98080443D01*
X146215467Y-98102399D01*
X146209599Y-98121743D01*
X146206148Y-98125948D01*
X146192197Y-98137397D01*
X146180748Y-98151348D01*
X146166797Y-98162797D01*
X146155348Y-98176748D01*
X146141397Y-98188197D01*
X146129948Y-98202148D01*
X146115997Y-98213597D01*
X146104548Y-98227548D01*
X146090597Y-98238997D01*
X146079148Y-98252948D01*
X146065197Y-98264397D01*
X146049403Y-98283643D01*
X146037667Y-98305599D01*
X146031799Y-98324943D01*
X146028348Y-98329148D01*
X146024143Y-98332599D01*
X146004799Y-98338467D01*
X145982843Y-98350203D01*
X145963597Y-98365997D01*
X145952148Y-98379948D01*
X145938197Y-98391397D01*
X145926748Y-98405348D01*
X145912797Y-98416797D01*
X145901348Y-98430748D01*
X145887397Y-98442197D01*
X145875948Y-98456148D01*
X145861997Y-98467597D01*
X145850548Y-98481548D01*
X145836597Y-98492997D01*
X145825148Y-98506948D01*
X145811197Y-98518397D01*
X145799748Y-98532348D01*
X145785797Y-98543797D01*
X145774348Y-98557748D01*
X145760397Y-98569197D01*
X145748948Y-98583148D01*
X145734997Y-98594597D01*
X145723548Y-98608548D01*
X145709597Y-98619997D01*
X145698148Y-98633948D01*
X145684197Y-98645397D01*
X145672748Y-98659348D01*
X145658797Y-98670797D01*
X145647348Y-98684748D01*
X145633397Y-98696197D01*
X145621948Y-98710148D01*
X145607997Y-98721597D01*
X145596548Y-98735548D01*
X145582597Y-98746997D01*
X145571148Y-98760948D01*
X145557197Y-98772397D01*
X145545748Y-98786348D01*
X145531797Y-98797797D01*
X145520348Y-98811748D01*
X145506397Y-98823197D01*
X145494948Y-98837148D01*
X145480997Y-98848597D01*
X145469548Y-98862548D01*
X145455597Y-98873997D01*
X145444148Y-98887948D01*
X145430197Y-98899397D01*
X145418748Y-98913348D01*
X145404797Y-98924797D01*
X145393348Y-98938748D01*
X145379397Y-98950197D01*
X145367948Y-98964148D01*
X145363743Y-98967599D01*
X145344399Y-98973467D01*
X145322443Y-98985203D01*
X145303197Y-99000997D01*
X145291748Y-99014948D01*
X145277797Y-99026397D01*
X145266348Y-99040348D01*
X145252397Y-99051797D01*
X145240948Y-99065748D01*
X145226997Y-99077197D01*
X145215548Y-99091148D01*
X145201597Y-99102597D01*
X145190148Y-99116548D01*
X145176197Y-99127997D01*
X145164748Y-99141948D01*
X145150797Y-99153397D01*
X145139348Y-99167348D01*
X145125397Y-99178797D01*
X145113948Y-99192748D01*
X145099997Y-99204197D01*
X145088548Y-99218148D01*
X145074597Y-99229597D01*
X145063148Y-99243548D01*
X145049197Y-99254997D01*
X145037748Y-99268948D01*
X145023797Y-99280397D01*
X145012348Y-99294348D01*
X144998397Y-99305797D01*
X144986948Y-99319748D01*
X144972997Y-99331197D01*
X144961548Y-99345148D01*
X144947597Y-99356597D01*
X144936148Y-99370548D01*
X144922197Y-99381997D01*
X144910748Y-99395948D01*
X144896797Y-99407397D01*
X144885348Y-99421348D01*
X144871397Y-99432797D01*
X144859948Y-99446748D01*
X144845997Y-99458197D01*
X144834548Y-99472148D01*
X144820597Y-99483597D01*
X144809148Y-99497548D01*
X144795197Y-99508997D01*
X144783748Y-99522948D01*
X144769797Y-99534397D01*
X144758348Y-99548348D01*
X144744397Y-99559797D01*
X144732948Y-99573748D01*
X144718997Y-99585197D01*
X144707548Y-99599148D01*
X144693597Y-99610597D01*
X144682148Y-99624548D01*
X144677943Y-99627999D01*
X144658599Y-99633867D01*
X144636643Y-99645603D01*
X144617397Y-99661397D01*
X144605948Y-99675348D01*
X144591997Y-99686797D01*
X144580548Y-99700748D01*
X144566597Y-99712197D01*
X144555148Y-99726148D01*
X144541197Y-99737597D01*
X144529748Y-99751548D01*
X144515797Y-99762997D01*
X144504348Y-99776948D01*
X144490397Y-99788397D01*
X144478948Y-99802348D01*
X144464997Y-99813797D01*
X144453548Y-99827748D01*
X144439597Y-99839197D01*
X144428148Y-99853148D01*
X144414197Y-99864597D01*
X144402748Y-99878548D01*
X144388797Y-99889997D01*
X144377348Y-99903948D01*
X144363397Y-99915397D01*
X144351948Y-99929348D01*
X144337997Y-99940797D01*
X144326548Y-99954748D01*
X144312597Y-99966197D01*
X144301148Y-99980148D01*
X144296943Y-99983599D01*
X144277599Y-99989467D01*
X144275400Y-99990642D01*
X144273201Y-99989467D01*
X144253857Y-99983599D01*
X144249652Y-99980148D01*
X144238203Y-99966197D01*
X144224252Y-99954748D01*
X144212803Y-99940797D01*
X144198852Y-99929348D01*
X144187403Y-99915397D01*
X144173452Y-99903948D01*
X144162003Y-99889997D01*
X144148052Y-99878548D01*
X144136603Y-99864597D01*
X144122652Y-99853148D01*
X144111203Y-99839197D01*
X144097252Y-99827748D01*
X144085803Y-99813797D01*
X144071852Y-99802348D01*
X144060403Y-99788397D01*
X144046452Y-99776948D01*
X144035003Y-99762997D01*
X144021052Y-99751548D01*
X144009603Y-99737597D01*
X143995652Y-99726148D01*
X143984203Y-99712197D01*
X143970252Y-99700748D01*
X143958803Y-99686797D01*
X143944852Y-99675348D01*
X143933403Y-99661397D01*
X143919452Y-99649948D01*
X143908003Y-99635997D01*
X143888757Y-99620203D01*
X143866801Y-99608467D01*
X143847457Y-99602599D01*
X143843252Y-99599148D01*
X143831803Y-99585197D01*
X143817852Y-99573748D01*
X143806403Y-99559797D01*
X143792452Y-99548348D01*
X143781003Y-99534397D01*
X143767052Y-99522948D01*
X143755603Y-99508997D01*
X143741652Y-99497548D01*
X143730203Y-99483597D01*
X143716252Y-99472148D01*
X143704803Y-99458197D01*
X143690852Y-99446748D01*
X143679403Y-99432797D01*
X143665452Y-99421348D01*
X143654003Y-99407397D01*
X143640052Y-99395948D01*
X143628603Y-99381997D01*
X143614652Y-99370548D01*
X143603203Y-99356597D01*
X143589252Y-99345148D01*
X143577803Y-99331197D01*
X143563852Y-99319748D01*
X143552403Y-99305797D01*
X143538452Y-99294348D01*
X143527003Y-99280397D01*
X143513052Y-99268948D01*
X143501603Y-99254997D01*
X143487652Y-99243548D01*
X143476203Y-99229597D01*
X143462252Y-99218148D01*
X143450803Y-99204197D01*
X143436852Y-99192748D01*
X143425403Y-99178797D01*
X143411452Y-99167348D01*
X143400003Y-99153397D01*
X143386052Y-99141948D01*
X143374603Y-99127997D01*
X143360652Y-99116548D01*
X143349203Y-99102597D01*
X143335252Y-99091148D01*
X143323803Y-99077197D01*
X143309852Y-99065748D01*
X143298403Y-99051797D01*
X143284452Y-99040348D01*
X143273003Y-99026397D01*
X143259052Y-99014948D01*
X143247603Y-99000997D01*
X143228357Y-98985203D01*
X143206401Y-98973467D01*
X143187057Y-98967599D01*
X143182852Y-98964148D01*
X143171403Y-98950197D01*
X143157452Y-98938748D01*
X143146003Y-98924797D01*
X143132052Y-98913348D01*
X143120603Y-98899397D01*
X143106652Y-98887948D01*
X143095203Y-98873997D01*
X143081252Y-98862548D01*
X143069803Y-98848597D01*
X143055852Y-98837148D01*
X143044403Y-98823197D01*
X143030452Y-98811748D01*
X143019003Y-98797797D01*
X143005052Y-98786348D01*
X142993603Y-98772397D01*
X142979652Y-98760948D01*
X142968203Y-98746997D01*
X142954252Y-98735548D01*
X142942803Y-98721597D01*
X142928852Y-98710148D01*
X142917403Y-98696197D01*
X142903452Y-98684748D01*
X142892003Y-98670797D01*
X142878052Y-98659348D01*
X142866603Y-98645397D01*
X142852652Y-98633948D01*
X142841203Y-98619997D01*
X142827252Y-98608548D01*
X142815803Y-98594597D01*
X142801852Y-98583148D01*
X142790403Y-98569197D01*
X142776452Y-98557748D01*
X142765003Y-98543797D01*
X142751052Y-98532348D01*
X142739603Y-98518397D01*
X142725652Y-98506948D01*
X142714203Y-98492997D01*
X142700252Y-98481548D01*
X142688803Y-98467597D01*
X142674852Y-98456148D01*
X142663403Y-98442197D01*
X142649452Y-98430748D01*
X142638003Y-98416797D01*
X142624052Y-98405348D01*
X142612603Y-98391397D01*
X142598652Y-98379948D01*
X142587203Y-98365997D01*
X142567957Y-98350203D01*
X142557687Y-98344713D01*
X142552197Y-98334443D01*
X142536403Y-98315197D01*
X142517157Y-98299403D01*
X142495201Y-98287667D01*
X142475857Y-98281799D01*
X142471652Y-98278348D01*
X142468201Y-98274143D01*
X142462333Y-98254799D01*
X142450597Y-98232843D01*
X142434803Y-98213597D01*
X142420852Y-98202148D01*
X142409403Y-98188197D01*
X142395452Y-98176748D01*
X142384003Y-98162797D01*
X142370052Y-98151348D01*
X142358603Y-98137397D01*
X142344652Y-98125948D01*
X142341201Y-98121743D01*
X142335333Y-98102399D01*
X142323597Y-98080443D01*
X142307803Y-98061197D01*
X142293852Y-98049748D01*
X142282403Y-98035797D01*
X142268452Y-98024348D01*
X142265001Y-98020143D01*
X142259133Y-98000799D01*
X142247397Y-97978843D01*
X142231603Y-97959597D01*
X142217652Y-97948148D01*
X142206203Y-97934197D01*
X142192252Y-97922748D01*
X142188801Y-97918543D01*
X142182933Y-97899199D01*
X142171197Y-97877243D01*
X142163401Y-97867743D01*
X142157533Y-97848399D01*
X142145797Y-97826443D01*
X142138001Y-97816943D01*
X142132133Y-97797599D01*
X142120397Y-97775643D01*
X142104603Y-97756397D01*
X142090652Y-97744948D01*
X142087201Y-97740743D01*
X142081333Y-97721399D01*
X142069597Y-97699443D01*
X142065600Y-97694572D01*
X142065600Y-97693800D01*
X142063160Y-97669024D01*
X142055933Y-97645199D01*
X142044197Y-97623243D01*
X142036401Y-97613743D01*
X142030533Y-97594399D01*
X142018797Y-97572443D01*
X142014800Y-97567572D01*
X142014800Y-97566800D01*
X142012360Y-97542024D01*
X142005133Y-97518199D01*
X141993397Y-97496243D01*
X141989400Y-97491372D01*
X141989400Y-97490600D01*
X141986960Y-97465824D01*
X141979733Y-97441999D01*
X141967997Y-97420043D01*
X141964000Y-97415172D01*
X141964000Y-97363600D01*
X141961560Y-97338824D01*
X141954333Y-97314999D01*
X141942597Y-97293043D01*
X141938600Y-97288172D01*
X141938600Y-97058028D01*
X141942597Y-97053157D01*
X141954333Y-97031201D01*
X141961560Y-97007376D01*
X141964000Y-96982600D01*
X141964000Y-96905628D01*
X141967997Y-96900757D01*
X141979733Y-96878801D01*
X141986960Y-96854976D01*
X141989400Y-96830200D01*
X141989400Y-96804028D01*
X141993397Y-96799157D01*
X142005133Y-96777201D01*
X142012360Y-96753376D01*
X142014800Y-96728600D01*
X142014800Y-96727828D01*
X142018797Y-96722957D01*
X142030533Y-96701001D01*
X142036401Y-96681657D01*
X142044197Y-96672157D01*
X142055933Y-96650201D01*
X142061801Y-96630857D01*
X142069597Y-96621357D01*
X142081333Y-96599401D01*
X142087201Y-96580057D01*
X142094997Y-96570557D01*
X142106733Y-96548601D01*
X142112601Y-96529257D01*
X142116052Y-96525052D01*
X142130003Y-96513603D01*
X142145797Y-96494357D01*
X142157533Y-96472401D01*
X142163401Y-96453057D01*
X142166852Y-96448852D01*
X142180803Y-96437403D01*
X142192252Y-96423452D01*
X142206203Y-96412003D01*
X142217652Y-96398052D01*
X142231603Y-96386603D01*
X142247397Y-96367357D01*
X142259133Y-96345401D01*
X142260871Y-96339671D01*
X142266601Y-96337933D01*
X142288557Y-96326197D01*
X142307803Y-96310403D01*
X142319252Y-96296452D01*
X142333203Y-96285003D01*
X142344652Y-96271052D01*
X142358603Y-96259603D01*
X142370052Y-96245652D01*
X142374257Y-96242201D01*
X142393601Y-96236333D01*
X142415557Y-96224597D01*
X142425057Y-96216801D01*
X142444401Y-96210933D01*
X142466357Y-96199197D01*
X142475857Y-96191401D01*
X142495201Y-96185533D01*
X142517157Y-96173797D01*
X142526657Y-96166001D01*
X142546001Y-96160133D01*
X142567957Y-96148397D01*
X142577457Y-96140601D01*
X142596801Y-96134733D01*
X142618757Y-96122997D01*
X142623628Y-96119000D01*
X142624400Y-96119000D01*
X142649176Y-96116560D01*
X142673001Y-96109333D01*
X142694957Y-96097597D01*
X142699828Y-96093600D01*
X142700600Y-96093600D01*
X142725376Y-96091160D01*
X142749201Y-96083933D01*
X142771157Y-96072197D01*
X142776028Y-96068200D01*
X142827600Y-96068200D01*
X142852376Y-96065760D01*
X142876201Y-96058533D01*
X142898157Y-96046797D01*
X142903028Y-96042800D01*
X143260172Y-96042800D01*
X143265043Y-96046797D01*
M02*
