M48
; DRILL file {KiCad 5.1.6-c6e7f7d~86~ubuntu18.04.1} date Thu Jun  4 18:49:28 2020
; FORMAT={-:-/ absolute / inch / decimal}
; #@! TF.CreationDate,2020-06-04T18:49:28-07:00
; #@! TF.GenerationSoftware,Kicad,Pcbnew,5.1.6-c6e7f7d~86~ubuntu18.04.1
FMAT,2
INCH
T1C0.0315
T2C0.0350
T3C0.0374
T4C0.0394
T5C0.0618
T6C0.1260
T7C0.1280
%
G90
G05
T1
X4.7736Y-3.9764
X4.9311Y-6.0728
X5.0886Y-4.4488
X5.1181Y-5.9646
X5.128Y-5.4626
X5.187Y-4.6949
X5.2067Y-4.5768
X5.2657Y-4.0256
X5.2657Y-4.0846
X5.2657Y-4.8819
X5.2756Y-6.1024
X5.3051Y-3.7598
X5.315Y-3.6417
X5.315Y-5.9252
X5.3346Y-4.3504
X5.3445Y-4.8228
X5.374Y-5.3051
X5.3839Y-5.502
X5.4232Y-6.063
X5.6299Y-4.1339
X5.7185Y-6.1516
X5.7382Y-6.0531
X5.7776Y-4.0551
X5.875Y-4.725
X5.95Y-4.975
X6.0728Y-4.2028
T2
X4.8161Y-6.1969
X4.9063Y-6.1969
X4.9464Y-6.3866
X4.9864Y-6.4567
X5.0264Y-6.3866
X5.0664Y-6.4567
X5.1064Y-6.3866
X5.1464Y-6.4567
X5.1864Y-6.3866
X5.2264Y-6.4567
X5.2661Y-6.1969
X5.3563Y-6.1969
T3
X6.0781Y-4.05
X6.1766Y-4.05
X6.275Y-4.05
X6.0781Y-4.4
X6.1766Y-4.4
X6.275Y-4.4
X4.9606Y-3.937
X4.9606Y-4.0354
X4.9606Y-4.1339
X4.9606Y-4.2323
X4.9606Y-4.3307
X6.0781Y-5.7185
X6.1766Y-5.7185
X6.275Y-5.7185
X6.0827Y-6.3386
X6.1811Y-6.3386
X6.2795Y-6.3386
X6.0781Y-6.0335
X6.1766Y-6.0335
X6.275Y-6.0335
X4.9606Y-4.5866
X4.9606Y-4.685
X4.9606Y-4.7835
X4.9606Y-5.025
X4.9606Y-5.1234
X4.9606Y-5.2219
X4.9606Y-5.3203
X4.9606Y-5.4187
X4.9606Y-5.5171
X6.0781Y-5.4134
X6.1766Y-5.4134
X6.275Y-5.4134
X6.0781Y-5.1
X6.1766Y-5.1
X6.275Y-5.1
X6.0781Y-4.75
X6.1766Y-4.75
X6.275Y-4.75
T4
X5.5709Y-6.6535
X5.6693Y-6.6535
X5.5Y-4.2
X5.5Y-4.3
X5.5Y-4.4
X5.5Y-4.5
X5.5Y-4.6
X5.5Y-4.7
X5.5Y-4.8
X5.5Y-4.9
X5.5Y-5.0
X5.5Y-5.1
X5.5Y-5.2
X5.5Y-5.3
X5.5Y-5.4
X5.5Y-5.5
X5.5Y-5.6
X5.5Y-5.7
X5.5Y-5.8
X5.5Y-5.9
X5.5Y-6.0
X5.5Y-6.1
X4.9606Y-5.7874
X4.9606Y-5.8858
T5
X4.7661Y-6.4217
X5.4063Y-6.4217
T6
X6.3Y-3.65
X6.3Y-6.65
X5.9Y-3.65
X5.9Y-6.65
T7
X4.8362Y-6.5567
X5.3362Y-6.5567
T0
M30
